<?xml version="1.0" encoding="utf-8"?>
<!-- Generator: Adobe Illustrator 18.1.1, SVG Export Plug-In . SVG Version: 6.00 Build 0)  -->
<svg version="1.1" id="Layer_1" xmlns="http://www.w3.org/2000/svg" xmlns:xlink="http://www.w3.org/1999/xlink" x="0px" y="0px"
	 viewBox="0 0 300 750" enable-background="new 0 0 300 750" xml:space="preserve">
<path fill="#F2F2F2" d="M5,739.9h290c2.2,0,4-1.8,4-4V2H1v733.9C1,738.1,2.8,739.9,5,739.9z"/>
<g>
	<path fill="#F68B3C" d="M131.4,163.6c-0.1-0.5-0.5-1.4-1.9-1.4c-0.9,0-1.6,0.6-1.6,1.2c0,0.5,0.3,0.9,1.1,1.1l1.5,0.3
		c2.2,0.4,3.3,1.8,3.3,3.4c0,1.8-1.5,3.6-4.2,3.6c-3.1,0-4.5-2-4.6-3.6l2.3-0.6c0.1,1,0.8,2,2.4,2c1,0,1.6-0.5,1.6-1.2
		c0-0.6-0.5-1-1.2-1.1l-1.6-0.3c-1.9-0.4-3.1-1.6-3.1-3.3c0-2.1,1.9-3.6,4.1-3.6c2.8,0,3.9,1.7,4.1,3L131.4,163.6z"/>
	<path fill="#F68B3C" d="M138.2,163.5h1.6v2.1h-1.6v3c0,0.7,0.4,0.8,0.9,0.8c0.3,0,0.5,0,0.6-0.1v2c-0.1,0-0.5,0.2-1.3,0.2
		c-1.6,0-2.7-1-2.7-2.6v-3.4h-1.4v-2.1h0.4c0.8,0,1.2-0.6,1.2-1.3v-1h2.2V163.5z"/>
	<path fill="#F68B3C" d="M148.3,169.2c-0.4,1.4-1.6,2.5-3.7,2.5c-2.2,0-4.1-1.6-4.1-4.2c0-2.6,1.9-4.2,4-4.2c2.5,0,4,1.5,4,4.1
		c0,0.3,0,0.7,0,0.8h-5.5c0,0.9,0.9,1.5,1.8,1.5c0.9,0,1.4-0.4,1.6-1L148.3,169.2z M146.1,166.6c0-0.6-0.4-1.3-1.6-1.3
		c-1,0-1.5,0.8-1.6,1.3H146.1z"/>
	<path fill="#F68B3C" d="M149.7,174.5v-11h2.4v0.8c0.3-0.5,1.2-1,2.3-1c2.3,0,3.7,1.8,3.7,4.1c0,2.4-1.6,4.2-3.8,4.2
		c-1,0-1.8-0.4-2.2-0.8v3.7H149.7z M153.9,165.5c-0.9,0-1.8,0.6-1.8,2c0,1.3,0.8,2,1.8,2c1,0,1.8-0.7,1.8-2
		C155.7,166.2,154.8,165.5,153.9,165.5z"/>
	<path fill="#F68B3C" d="M164.9,171.5v-6.8h-2.5V163c1.6,0,2.7-0.9,2.8-2h2.2v10.4H164.9z"/>
	<path fill="#646565" d="M126,193.7v-11.3h1.6v11.3H126z"/>
	<path fill="#646565" d="M131.5,193.7H130V186h1.5v1.1c0.6-1,1.5-1.3,2.4-1.3c1.8,0,2.8,1.3,2.8,3v4.9h-1.5v-4.6
		c0-1.1-0.4-1.9-1.8-1.9c-1.2,0-1.8,0.9-1.8,2.1V193.7z"/>
	<path fill="#646565" d="M139.3,191.2c0.1,0.8,0.7,1.4,1.8,1.4c0.8,0,1.3-0.5,1.3-1c0-0.5-0.4-0.8-1-1l-1.3-0.3
		c-1.2-0.3-1.9-1.1-1.9-2.2c0-1.3,1.2-2.4,2.7-2.4c2.1,0,2.8,1.4,2.9,2.1l-1.3,0.5c-0.1-0.4-0.4-1.3-1.6-1.3c-0.8,0-1.3,0.5-1.3,1
		c0,0.5,0.3,0.8,0.9,0.9l1.2,0.3c1.4,0.3,2.1,1.2,2.1,2.3c0,1.1-0.9,2.4-2.8,2.4c-2.1,0-3-1.4-3.1-2.2L139.3,191.2z"/>
	<path fill="#646565" d="M152.2,191.5c-0.4,1.4-1.7,2.4-3.5,2.4c-2.1,0-3.9-1.5-3.9-4.1c0-2.4,1.7-4.1,3.7-4.1c2.4,0,3.7,1.6,3.7,4
		c0,0.2,0,0.4,0,0.5h-5.8c0,1.4,1,2.3,2.3,2.3c1.2,0,1.9-0.7,2.2-1.6L152.2,191.5z M150.7,189c0-1.1-0.8-2-2.1-2c-1.3,0-2,1-2.1,2
		H150.7z"/>
	<path fill="#646565" d="M158.2,187.5c-0.2,0-0.4,0-0.7,0c-1.3,0-2.1,0.7-2.1,2.4v3.9h-1.5V186h1.5v1.3c0.6-1.2,1.5-1.5,2.3-1.5
		c0.2,0,0.4,0,0.5,0V187.5z"/>
	<path fill="#646565" d="M161.9,186h1.7v1.4h-1.7v4c0,0.7,0.3,1.1,1.1,1.1c0.2,0,0.5,0,0.6-0.1v1.3c-0.1,0-0.5,0.1-1,0.1
		c-1.3,0-2.1-0.8-2.1-2.2v-4.2h-1.5V186h0.4c0.8,0,1.2-0.5,1.2-1.2v-1.2h1.4V186z"/>
	<path fill="#646565" d="M169.1,196.9l1.9-4.1l-3.3-6.9h1.7l2.4,5.3l2.3-5.3h1.6l-5,10.9H169.1z"/>
	<path fill="#646565" d="M183.8,189.8c0,2.4-1.6,4.1-3.9,4.1c-2.3,0-3.9-1.7-3.9-4.1c0-2.3,1.6-4.1,3.9-4.1
		C182.2,185.7,183.8,187.5,183.8,189.8z M182.3,189.8c0-1.8-1.1-2.7-2.4-2.7c-1.3,0-2.4,1-2.4,2.7c0,1.8,1.1,2.8,2.4,2.8
		C181.2,192.6,182.3,191.6,182.3,189.8z"/>
	<path fill="#646565" d="M188.2,193.9c-1.8,0-2.9-1.3-2.9-3.1V186h1.5v4.6c0,1.1,0.5,2,1.7,2c1.2,0,1.8-0.8,1.8-2V186h1.5v6.3
		c0,0.6,0,1.2,0.1,1.4h-1.4c0-0.2-0.1-0.6-0.1-0.9C190,193.6,189.1,193.9,188.2,193.9z"/>
	<path fill="#646565" d="M198.4,187.5c-0.2,0-0.4,0-0.7,0c-1.3,0-2.1,0.7-2.1,2.4v3.9h-1.5V186h1.5v1.3c0.6-1.2,1.5-1.5,2.3-1.5
		c0.2,0,0.4,0,0.5,0V187.5z"/>
	<path fill="#646565" d="M204.2,189.8c0,1.8,1.1,2.7,2.4,2.7c1.4,0,2-1,2.1-1.6l1.3,0.6c-0.4,1.1-1.5,2.4-3.5,2.4
		c-2.2,0-3.9-1.8-3.9-4.1c0-2.4,1.7-4.1,3.9-4.1c2,0,3.1,1.3,3.4,2.4l-1.4,0.6c-0.2-0.8-0.8-1.6-2.1-1.6
		C205.3,187.1,204.2,188,204.2,189.8z"/>
	<path fill="#646565" d="M213.3,189.3l2.1-0.3c0.5-0.1,0.6-0.3,0.6-0.6c0-0.8-0.5-1.4-1.7-1.4c-1.1,0-1.6,0.7-1.7,1.6l-1.4-0.3
		c0.2-1.5,1.5-2.5,3.2-2.5c2.3,0,3.2,1.3,3.2,2.8v3.9c0,0.7,0.1,1.1,0.1,1.3h-1.5c0-0.2-0.1-0.5-0.1-1c-0.3,0.5-1.1,1.3-2.5,1.3
		c-1.6,0-2.6-1.1-2.6-2.3C210.9,190.2,211.9,189.5,213.3,189.3z M215.9,190.4V190l-2.4,0.4c-0.6,0.1-1.1,0.5-1.1,1.2
		c0,0.6,0.5,1.1,1.2,1.1C214.9,192.7,215.9,192.1,215.9,190.4z"/>
	<path fill="#646565" d="M223.7,187.5c-0.2,0-0.4,0-0.7,0c-1.3,0-2.1,0.7-2.1,2.4v3.9h-1.5V186h1.5v1.3c0.6-1.2,1.5-1.5,2.3-1.5
		c0.2,0,0.4,0,0.5,0V187.5z"/>
	<path fill="#646565" d="M230.3,192.5c-0.4,0.7-1.2,1.4-2.4,1.4c-2.3,0-3.6-1.8-3.6-4.1c0-2.2,1.5-4,3.6-4c1.4,0,2.1,0.7,2.4,1.3v-5
		h1.5v10.2c0,0.7,0.1,1.3,0.1,1.4h-1.5c0-0.2-0.1-0.6-0.1-1V192.5z M228.1,192.6c1.4,0,2.2-1.2,2.2-2.8c0-1.6-0.8-2.7-2.2-2.7
		c-1.4,0-2.3,1.1-2.3,2.7S226.6,192.6,228.1,192.6z"/>
	<path fill="#646565" d="M235,191.6c0.7,0,1.3,0.5,1.3,1.5c0,2.1-1.4,3-2.4,3.1v-0.8c0.8-0.2,1.3-1,1.3-1.7c0,0-0.2,0.1-0.4,0.1
		c-0.6,0-1.1-0.4-1.1-1.1C233.9,192.1,234.4,191.6,235,191.6z"/>
	<path fill="#646565" d="M126.8,209c0,1.8,1.1,2.7,2.4,2.7c1.4,0,2-1,2.1-1.6l1.3,0.6c-0.4,1.1-1.5,2.4-3.5,2.4
		c-2.2,0-3.9-1.8-3.9-4.1c0-2.4,1.7-4.1,3.9-4.1c2,0,3.1,1.3,3.4,2.4l-1.4,0.6c-0.2-0.8-0.8-1.6-2.1-1.6
		C127.9,206.3,126.8,207.2,126.8,209z"/>
	<path fill="#646565" d="M135.5,212.9H134v-11.6h1.5v4.8c0.6-0.8,1.5-1.1,2.3-1.1c1.8,0,2.8,1.3,2.8,3v4.9h-1.5v-4.6
		c0-1.1-0.4-1.9-1.8-1.9c-1.2,0-1.8,0.9-1.8,2V212.9z"/>
	<path fill="#646565" d="M143.4,201.2c0.6,0,1.1,0.5,1.1,1.1c0,0.6-0.5,1.1-1.1,1.1c-0.6,0-1.1-0.5-1.1-1.1
		C142.4,201.7,142.8,201.2,143.4,201.2z M142.7,212.9v-7.7h1.5v7.7H142.7z"/>
	<path fill="#646565" d="M146.4,215.9v-10.7h1.5v1.2c0.4-0.8,1.3-1.4,2.6-1.4c2.3,0,3.5,1.8,3.5,4c0,2.3-1.3,4.1-3.6,4.1
		c-1.2,0-2.1-0.6-2.5-1.2v4.1H146.4z M150.2,206.3c-1.4,0-2.3,1.2-2.3,2.7c0,1.6,0.9,2.7,2.3,2.7c1.4,0,2.3-1.1,2.3-2.7
		C152.5,207.5,151.6,206.3,150.2,206.3z"/>
	<path fill="#646565" d="M163.2,201.4v1.3c-0.1,0-0.3-0.1-0.7-0.1c-0.5,0-1.2,0.2-1.2,1.3v1.2h5.1v7.7h-1.5v-6.3h-3.6v6.3h-1.6v-6.3
		h-1.4v-1.4h1.4v-1.3c0-1.7,1.1-2.6,2.5-2.6C162.8,201.2,163.1,201.4,163.2,201.4z M165.6,201.2c0.6,0,1.1,0.5,1.1,1.1
		c0,0.6-0.5,1.1-1.1,1.1c-0.6,0-1.1-0.5-1.1-1.1C164.6,201.6,165,201.2,165.6,201.2z"/>
	<path fill="#646565" d="M172.9,206.7c-0.2,0-0.4,0-0.7,0c-1.3,0-2.1,0.7-2.1,2.4v3.9h-1.5v-7.7h1.5v1.3c0.6-1.2,1.5-1.5,2.3-1.5
		c0.2,0,0.4,0,0.5,0V206.7z"/>
	<path fill="#646565" d="M174.8,210.4c0.1,0.8,0.7,1.4,1.8,1.4c0.8,0,1.3-0.5,1.3-1c0-0.5-0.4-0.8-1-1l-1.3-0.3
		c-1.2-0.3-1.9-1.1-1.9-2.2c0-1.3,1.2-2.4,2.7-2.4c2.1,0,2.8,1.4,2.9,2.1l-1.3,0.5c-0.1-0.4-0.4-1.3-1.6-1.3c-0.8,0-1.3,0.5-1.3,1
		c0,0.5,0.3,0.8,0.9,0.9l1.2,0.3c1.4,0.3,2.1,1.2,2.1,2.3c0,1.1-0.9,2.4-2.8,2.4c-2.1,0-3-1.4-3.1-2.2L174.8,210.4z"/>
	<path fill="#646565" d="M183.1,205.2h1.7v1.4h-1.7v4c0,0.7,0.3,1.1,1.1,1.1c0.2,0,0.5,0,0.6-0.1v1.3c-0.1,0-0.5,0.1-1,0.1
		c-1.3,0-2.1-0.8-2.1-2.2v-4.2h-1.5v-1.4h0.4c0.8,0,1.2-0.5,1.2-1.2v-1.2h1.4V205.2z"/>
	<path fill="#646565" d="M187.5,210.8c0.7,0,1.3,0.5,1.3,1.5c0,2.1-1.4,3-2.4,3.1v-0.8c0.8-0.2,1.3-1,1.3-1.7c0,0-0.2,0.1-0.4,0.1
		c-0.6,0-1.1-0.4-1.1-1.1C186.3,211.3,186.8,210.8,187.5,210.8z"/>
	<path fill="#646565" d="M196.5,206.5v6.3H195v-6.3h-1.4v-1.4h1.4v-1.3c0-1.7,1.1-2.6,2.5-2.6c0.5,0,0.8,0.1,0.9,0.2v1.3
		c-0.1,0-0.3-0.1-0.7-0.1c-0.5,0-1.2,0.3-1.2,1.3v1.2h1.9v1.4H196.5z"/>
	<path fill="#646565" d="M201.3,208.5l2.1-0.3c0.5-0.1,0.6-0.3,0.6-0.6c0-0.8-0.5-1.4-1.7-1.4c-1.1,0-1.6,0.7-1.7,1.6l-1.4-0.3
		c0.2-1.5,1.5-2.5,3.2-2.5c2.3,0,3.2,1.3,3.2,2.8v3.9c0,0.7,0.1,1.1,0.1,1.3h-1.5c0-0.2-0.1-0.5-0.1-1c-0.3,0.5-1.1,1.3-2.5,1.3
		c-1.6,0-2.6-1.1-2.6-2.3C199,209.4,200,208.7,201.3,208.5z M204,209.6v-0.4l-2.4,0.4c-0.6,0.1-1.1,0.5-1.1,1.2
		c0,0.6,0.5,1.1,1.2,1.1C203,211.9,204,211.3,204,209.6z"/>
	<path fill="#646565" d="M208.4,209c0,1.8,1.1,2.7,2.4,2.7c1.4,0,2-1,2.1-1.6l1.3,0.6c-0.4,1.1-1.5,2.4-3.5,2.4
		c-2.2,0-3.9-1.8-3.9-4.1c0-2.4,1.7-4.1,3.9-4.1c2,0,3.1,1.3,3.4,2.4l-1.4,0.6c-0.2-0.8-0.8-1.6-2.1-1.6
		C209.5,206.3,208.4,207.2,208.4,209z"/>
	<path fill="#646565" d="M216.4,201.2c0.6,0,1.1,0.5,1.1,1.1c0,0.6-0.5,1.1-1.1,1.1c-0.6,0-1.1-0.5-1.1-1.1
		C215.3,201.7,215.8,201.2,216.4,201.2z M215.6,212.9v-7.7h1.5v7.7H215.6z"/>
	<path fill="#646565" d="M220.9,212.9h-1.5v-7.7h1.5v1.1c0.6-1,1.5-1.3,2.4-1.3c1.8,0,2.8,1.3,2.8,3v4.9h-1.5v-4.6
		c0-1.1-0.4-1.9-1.8-1.9c-1.2,0-1.8,0.9-1.8,2.1V212.9z"/>
	<path fill="#646565" d="M228.9,213c0.1,1.1,0.9,1.9,2.1,1.9c1.6,0,2.4-0.8,2.4-2.5v-1.1c-0.4,0.7-1.2,1.3-2.4,1.3
		c-2,0-3.5-1.6-3.5-3.7c0-2.1,1.4-3.7,3.5-3.7c1.2,0,2,0.4,2.4,1.2v-1.1h1.5v7.1c0,2-1,3.9-3.9,3.9c-1.9,0-3.4-1.2-3.6-2.9
		L228.9,213z M233.5,208.8c0-1.5-0.9-2.5-2.2-2.5c-1.3,0-2.2,1-2.2,2.5c0,1.5,0.9,2.5,2.2,2.5C232.6,211.3,233.5,210.3,233.5,208.8z
		"/>
	<path fill="#646565" d="M243.5,213.1c-1.8,0-2.9-1.3-2.9-3.1v-4.9h1.5v4.6c0,1.1,0.5,2,1.7,2c1.2,0,1.8-0.8,1.8-2v-4.6h1.5v6.3
		c0,0.6,0,1.2,0.1,1.4h-1.4c0-0.2-0.1-0.6-0.1-0.9C245.3,212.8,244.3,213.1,243.5,213.1z"/>
	<path fill="#646565" d="M249.4,215.9v-10.7h1.5v1.2c0.4-0.8,1.3-1.4,2.6-1.4c2.3,0,3.5,1.8,3.5,4c0,2.3-1.3,4.1-3.6,4.1
		c-1.2,0-2.1-0.6-2.5-1.2v4.1H249.4z M253.1,206.3c-1.4,0-2.3,1.2-2.3,2.7c0,1.6,0.9,2.7,2.3,2.7c1.4,0,2.3-1.1,2.3-2.7
		C255.4,207.5,254.6,206.3,253.1,206.3z"/>
	<path fill="#646565" d="M259.3,210.7c0.6,0,1.1,0.5,1.1,1.1s-0.5,1.1-1.1,1.1c-0.6,0-1.1-0.5-1.1-1.1S258.6,210.7,259.3,210.7z"/>
	<path fill="#646565" d="M126,232.1v-11.3h4c2.9,0,5.4,2,5.4,5.7c0,3.7-2.5,5.7-5.4,5.7H126z M129.9,230.7c2.1,0,3.9-1.4,3.9-4.3
		c0-2.9-1.7-4.3-3.8-4.3h-2.4v8.6H129.9z"/>
	<path fill="#646565" d="M144.3,228.2c0,2.4-1.6,4.1-3.9,4.1c-2.3,0-3.9-1.7-3.9-4.1c0-2.3,1.6-4.1,3.9-4.1
		C142.7,224.1,144.3,225.9,144.3,228.2z M142.8,228.2c0-1.8-1.1-2.7-2.4-2.7c-1.3,0-2.4,1-2.4,2.7c0,1.8,1.1,2.8,2.4,2.8
		C141.6,231,142.8,230,142.8,228.2z"/>
	<path fill="#646565" d="M151.1,232.1h-1.5v-7.7h1.5v1.1c0.6-1,1.5-1.3,2.4-1.3c1.8,0,2.8,1.3,2.8,3v4.9h-1.5v-4.6
		c0-1.1-0.4-1.9-1.8-1.9c-1.2,0-1.8,0.9-1.8,2.1V232.1z"/>
	<path fill="#646565" d="M165.5,228.2c0,2.4-1.6,4.1-3.9,4.1c-2.3,0-3.9-1.7-3.9-4.1c0-2.3,1.6-4.1,3.9-4.1
		C163.9,224.1,165.5,225.9,165.5,228.2z M164,228.2c0-1.8-1.1-2.7-2.4-2.7c-1.3,0-2.4,1-2.4,2.7c0,1.8,1.1,2.8,2.4,2.8
		C162.8,231,164,230,164,228.2z"/>
	<path fill="#646565" d="M169,224.4h1.7v1.4H169v4c0,0.7,0.3,1.1,1.1,1.1c0.2,0,0.5,0,0.6-0.1v1.3c-0.1,0-0.5,0.1-1,0.1
		c-1.3,0-2.1-0.8-2.1-2.2v-4.2H166v-1.4h0.4c0.8,0,1.2-0.5,1.2-1.2V222h1.4V224.4z"/>
	<path fill="#646565" d="M180.3,225.9c-0.2,0-0.4,0-0.7,0c-1.3,0-2.1,0.7-2.1,2.4v3.9H176v-7.7h1.5v1.3c0.6-1.2,1.5-1.5,2.3-1.5
		c0.2,0,0.4,0,0.5,0V225.9z"/>
	<path fill="#646565" d="M188.2,229.9c-0.4,1.4-1.7,2.4-3.5,2.4c-2.1,0-3.9-1.5-3.9-4.1c0-2.4,1.7-4.1,3.7-4.1c2.4,0,3.7,1.6,3.7,4
		c0,0.2,0,0.4,0,0.5h-5.8c0,1.4,1,2.3,2.3,2.3c1.2,0,1.9-0.7,2.2-1.6L188.2,229.9z M186.7,227.4c0-1.1-0.8-2-2.1-2c-1.3,0-2,1-2.1,2
		H186.7z"/>
	<path fill="#646565" d="M189.9,232.1v-7.7h1.4v1c0.5-0.8,1.4-1.2,2.3-1.2c1,0,1.9,0.5,2.3,1.5c0.6-1.1,1.6-1.5,2.6-1.5
		c1.3,0,2.7,0.9,2.7,2.9v5h-1.5v-4.8c0-1-0.5-1.8-1.6-1.8c-1.1,0-1.8,0.8-1.8,1.9v4.7h-1.5v-4.8c0-1-0.5-1.8-1.6-1.8
		c-1.1,0-1.8,0.8-1.8,2v4.6H189.9z"/>
	<path fill="#646565" d="M210.5,228.2c0,2.4-1.6,4.1-3.9,4.1c-2.3,0-3.9-1.7-3.9-4.1c0-2.3,1.6-4.1,3.9-4.1
		C208.9,224.1,210.5,225.9,210.5,228.2z M209,228.2c0-1.8-1.1-2.7-2.4-2.7c-1.3,0-2.4,1-2.4,2.7c0,1.8,1.1,2.8,2.4,2.8
		C207.8,231,209,230,209,228.2z"/>
	<path fill="#646565" d="M215.4,232.1h-1.5l-3.1-7.7h1.7l2.2,5.9l2.2-5.9h1.6L215.4,232.1z"/>
	<path fill="#646565" d="M226,229.9c-0.4,1.4-1.7,2.4-3.5,2.4c-2.1,0-3.9-1.5-3.9-4.1c0-2.4,1.7-4.1,3.7-4.1c2.4,0,3.7,1.6,3.7,4
		c0,0.2,0,0.4,0,0.5h-5.8c0,1.4,1,2.3,2.3,2.3c1.2,0,1.9-0.7,2.2-1.6L226,229.9z M224.5,227.4c0-1.1-0.8-2-2.1-2c-1.3,0-2,1-2.1,2
		H224.5z"/>
	<path fill="#646565" d="M232.1,220.4c0.6,0,1.1,0.5,1.1,1.1c0,0.6-0.5,1.1-1.1,1.1c-0.6,0-1.1-0.5-1.1-1.1
		C231,220.9,231.5,220.4,232.1,220.4z M231.4,232.1v-7.7h1.5v7.7H231.4z"/>
	<path fill="#646565" d="M237.1,224.4h1.7v1.4h-1.7v4c0,0.7,0.3,1.1,1.1,1.1c0.2,0,0.5,0,0.6-0.1v1.3c-0.1,0-0.5,0.1-1,0.1
		c-1.3,0-2.1-0.8-2.1-2.2v-4.2h-1.5v-1.4h0.4c0.8,0,1.2-0.5,1.2-1.2V222h1.4V224.4z"/>
	<path fill="#646565" d="M241.4,229.9c0.6,0,1.1,0.5,1.1,1.1s-0.5,1.1-1.1,1.1c-0.6,0-1.1-0.5-1.1-1.1S240.8,229.9,241.4,229.9z"/>
</g>
<g>
	<path fill="#F68B3C" d="M130.8,373.6c-0.1-0.5-0.5-1.4-1.9-1.4c-0.9,0-1.6,0.6-1.6,1.2c0,0.5,0.3,0.9,1.1,1.1l1.5,0.3
		c2.2,0.4,3.3,1.8,3.3,3.4c0,1.8-1.5,3.6-4.2,3.6c-3.1,0-4.5-2-4.6-3.6l2.3-0.6c0.1,1,0.8,2,2.4,2c1,0,1.6-0.5,1.6-1.2
		c0-0.6-0.5-1-1.2-1.1l-1.6-0.3c-1.9-0.4-3.1-1.6-3.1-3.3c0-2.1,1.9-3.6,4.1-3.6c2.8,0,3.9,1.7,4.1,3L130.8,373.6z"/>
	<path fill="#F68B3C" d="M137.7,373.6h1.6v2.1h-1.6v3c0,0.7,0.4,0.8,0.9,0.8c0.3,0,0.5,0,0.6-0.1v2c-0.1,0-0.5,0.2-1.3,0.2
		c-1.6,0-2.7-1-2.7-2.6v-3.4h-1.4v-2.1h0.4c0.8,0,1.2-0.6,1.2-1.3v-1h2.2V373.6z"/>
	<path fill="#F68B3C" d="M147.8,379.2c-0.4,1.4-1.6,2.5-3.7,2.5c-2.2,0-4.1-1.6-4.1-4.2c0-2.6,1.9-4.2,4-4.2c2.5,0,4,1.5,4,4.1
		c0,0.3,0,0.7,0,0.8h-5.5c0,0.9,0.9,1.5,1.8,1.5c0.9,0,1.4-0.4,1.6-1L147.8,379.2z M145.6,376.6c0-0.6-0.4-1.3-1.6-1.3
		c-1,0-1.5,0.8-1.6,1.3H145.6z"/>
	<path fill="#F68B3C" d="M149.2,384.6v-11h2.4v0.8c0.3-0.5,1.2-1,2.3-1c2.3,0,3.7,1.8,3.7,4.1c0,2.4-1.6,4.2-3.8,4.2
		c-1,0-1.8-0.4-2.2-0.8v3.7H149.2z M153.4,375.6c-0.9,0-1.8,0.6-1.8,2c0,1.3,0.8,2,1.8,2c1,0,1.8-0.7,1.8-2
		C155.2,376.2,154.3,375.6,153.4,375.6z"/>
	<path fill="#F68B3C" d="M162,375.3c0-0.1-0.1-0.5-0.1-0.9c0-1.9,1.4-3.5,3.9-3.5c2.4,0,3.9,1.6,3.9,3.4c0,1.3-0.7,2.4-2,3.2l-2,1.2
		c-0.3,0.2-0.6,0.4-0.7,0.7h4.8v2.1h-7.9c0-1.9,0.5-3.5,2.4-4.6l1.7-1c0.8-0.5,1.1-0.9,1.1-1.6c0-0.7-0.5-1.2-1.4-1.2
		c-1,0-1.5,0.7-1.5,1.5c0,0.2,0,0.4,0.1,0.6L162,375.3z"/>
	<path fill="#646565" d="M125.5,405.7v-11.3h6.9v1.5h-5.3v3.6h4.8v1.5h-4.8v4.8H125.5z"/>
	<path fill="#646565" d="M140.5,401.9c0,2.4-1.6,4.1-3.9,4.1s-3.9-1.7-3.9-4.1c0-2.3,1.6-4.1,3.9-4.1S140.5,399.5,140.5,401.9z
		 M139,401.9c0-1.8-1.1-2.7-2.4-2.7s-2.4,1-2.4,2.7c0,1.8,1.1,2.8,2.4,2.8S139,403.7,139,401.9z"/>
	<path fill="#646565" d="M142.1,405.7v-11.6h1.5v11.6H142.1z"/>
	<path fill="#646565" d="M145.9,405.7v-11.6h1.5v11.6H145.9z"/>
	<path fill="#646565" d="M156.8,401.9c0,2.4-1.6,4.1-3.9,4.1c-2.3,0-3.9-1.7-3.9-4.1c0-2.3,1.6-4.1,3.9-4.1
		C155.2,397.8,156.8,399.5,156.8,401.9z M155.3,401.9c0-1.8-1.1-2.7-2.4-2.7c-1.3,0-2.4,1-2.4,2.7c0,1.8,1.1,2.8,2.4,2.8
		C154.2,404.6,155.3,403.7,155.3,401.9z"/>
	<path fill="#646565" d="M164.2,398l2,5.8l1.7-5.8h1.6l-2.5,7.7h-1.6l-2-5.9l-2,5.9h-1.6l-2.5-7.7h1.6l1.7,5.8l2-5.8H164.2z"/>
	<path fill="#646565" d="M176.3,398h1.7v1.4h-1.7v4c0,0.7,0.3,1.1,1.1,1.1c0.2,0,0.5,0,0.6-0.1v1.3c-0.1,0-0.5,0.1-1,0.1
		c-1.3,0-2.1-0.8-2.1-2.2v-4.2h-1.5V398h0.4c0.8,0,1.2-0.5,1.2-1.2v-1.2h1.4V398z"/>
	<path fill="#646565" d="M181.2,405.7h-1.5v-11.6h1.5v4.8c0.6-0.8,1.5-1.1,2.3-1.1c1.8,0,2.8,1.3,2.8,3v4.9h-1.5v-4.6
		c0-1.1-0.4-1.9-1.8-1.9c-1.2,0-1.8,0.9-1.8,2V405.7z"/>
	<path fill="#646565" d="M195.1,403.5c-0.4,1.4-1.7,2.4-3.5,2.4c-2.1,0-3.9-1.5-3.9-4.1c0-2.4,1.7-4.1,3.7-4.1c2.4,0,3.7,1.6,3.7,4
		c0,0.2,0,0.4,0,0.5h-5.8c0,1.4,1,2.3,2.3,2.3c1.2,0,1.9-0.7,2.2-1.6L195.1,403.5z M193.5,401.1c0-1.1-0.8-2-2.1-2c-1.3,0-2,1-2.1,2
		H193.5z"/>
	<path fill="#646565" d="M207.6,401.9c0,2.4-1.6,4.1-3.9,4.1c-2.3,0-3.9-1.7-3.9-4.1c0-2.3,1.6-4.1,3.9-4.1
		C206,397.8,207.6,399.5,207.6,401.9z M206.1,401.9c0-1.8-1.1-2.7-2.4-2.7c-1.3,0-2.4,1-2.4,2.7c0,1.8,1.1,2.8,2.4,2.8
		C205,404.6,206.1,403.7,206.1,401.9z"/>
	<path fill="#646565" d="M210.7,405.7h-1.5V398h1.5v1.1c0.6-1,1.5-1.3,2.4-1.3c1.8,0,2.8,1.3,2.8,3v4.9h-1.5v-4.6
		c0-1.1-0.4-1.9-1.8-1.9c-1.2,0-1.8,0.9-1.8,2.1V405.7z"/>
	<path fill="#646565" d="M217.3,401.8v-1.3h4.3v1.3H217.3z"/>
	<path fill="#646565" d="M224,403.2c0.1,0.8,0.7,1.4,1.8,1.4c0.8,0,1.3-0.5,1.3-1c0-0.5-0.4-0.8-1-1l-1.3-0.3
		c-1.2-0.3-1.9-1.1-1.9-2.2c0-1.3,1.2-2.4,2.7-2.4c2.1,0,2.8,1.4,2.9,2.1l-1.3,0.5c-0.1-0.4-0.4-1.3-1.6-1.3c-0.8,0-1.3,0.5-1.3,1
		c0,0.5,0.3,0.8,0.9,0.9l1.2,0.3c1.4,0.3,2.1,1.2,2.1,2.3c0,1.1-0.9,2.4-2.8,2.4c-2.1,0-3-1.4-3.1-2.2L224,403.2z"/>
	<path fill="#646565" d="M231.1,401.9c0,1.8,1.1,2.7,2.4,2.7c1.4,0,2-1,2.1-1.6l1.3,0.6c-0.4,1.1-1.5,2.4-3.5,2.4
		c-2.2,0-3.9-1.8-3.9-4.1c0-2.4,1.7-4.1,3.9-4.1c2,0,3.1,1.3,3.4,2.4l-1.4,0.6c-0.2-0.8-0.8-1.6-2.1-1.6
		C232.2,399.2,231.1,400.1,231.1,401.9z"/>
	<path fill="#646565" d="M242.6,399.6c-0.2,0-0.4,0-0.7,0c-1.3,0-2.1,0.7-2.1,2.4v3.9h-1.5V398h1.5v1.3c0.6-1.2,1.5-1.5,2.3-1.5
		c0.2,0,0.4,0,0.5,0V399.6z"/>
	<path fill="#646565" d="M250.5,403.5c-0.4,1.4-1.7,2.4-3.5,2.4c-2.1,0-3.9-1.5-3.9-4.1c0-2.4,1.7-4.1,3.7-4.1c2.4,0,3.7,1.6,3.7,4
		c0,0.2,0,0.4,0,0.5h-5.8c0,1.4,1,2.3,2.3,2.3c1.2,0,1.9-0.7,2.2-1.6L250.5,403.5z M249,401.1c0-1.1-0.8-2-2.1-2c-1.3,0-2,1-2.1,2
		H249z"/>
	<path fill="#646565" d="M258.9,403.5c-0.4,1.4-1.7,2.4-3.5,2.4c-2.1,0-3.9-1.5-3.9-4.1c0-2.4,1.7-4.1,3.7-4.1c2.4,0,3.7,1.6,3.7,4
		c0,0.2,0,0.4,0,0.5h-5.8c0,1.4,1,2.3,2.3,2.3c1.2,0,1.9-0.7,2.2-1.6L258.9,403.5z M257.3,401.1c0-1.1-0.8-2-2.1-2c-1.3,0-2,1-2.1,2
		H257.3z"/>
	<path fill="#646565" d="M262,405.7h-1.5V398h1.5v1.1c0.6-1,1.5-1.3,2.4-1.3c1.8,0,2.8,1.3,2.8,3v4.9h-1.5v-4.6
		c0-1.1-0.4-1.9-1.8-1.9c-1.2,0-1.8,0.9-1.8,2.1V405.7z"/>
	<path fill="#646565" d="M126.1,413.2c0.6,0,1.1,0.5,1.1,1.1c0,0.6-0.5,1.1-1.1,1.1c-0.6,0-1.1-0.5-1.1-1.1
		C125,413.7,125.5,413.2,126.1,413.2z M125.3,424.9v-7.7h1.5v7.7H125.3z"/>
	<path fill="#646565" d="M130.6,424.9h-1.5v-7.7h1.5v1.1c0.6-1,1.5-1.3,2.4-1.3c1.8,0,2.8,1.3,2.8,3v4.9h-1.5v-4.6
		c0-1.1-0.4-1.9-1.8-1.9c-1.2,0-1.8,0.9-1.8,2.1V424.9z"/>
	<path fill="#646565" d="M138.4,422.4c0.1,0.8,0.7,1.4,1.8,1.4c0.8,0,1.3-0.5,1.3-1c0-0.5-0.4-0.8-1-1l-1.3-0.3
		c-1.2-0.3-1.9-1.1-1.9-2.2c0-1.3,1.2-2.4,2.7-2.4c2.1,0,2.8,1.4,2.9,2.1l-1.3,0.5c-0.1-0.4-0.4-1.3-1.6-1.3c-0.8,0-1.3,0.5-1.3,1
		c0,0.5,0.3,0.8,0.9,0.9l1.2,0.3c1.4,0.3,2.1,1.2,2.1,2.3c0,1.1-0.9,2.4-2.8,2.4c-2.1,0-3-1.4-3.1-2.2L138.4,422.4z"/>
	<path fill="#646565" d="M146.7,417.2h1.7v1.4h-1.7v4c0,0.7,0.3,1.1,1.1,1.1c0.2,0,0.5,0,0.6-0.1v1.3c-0.1,0-0.5,0.1-1,0.1
		c-1.3,0-2.1-0.8-2.1-2.2v-4.2h-1.5v-1.4h0.4c0.8,0,1.2-0.5,1.2-1.2v-1.2h1.4V417.2z"/>
	<path fill="#646565" d="M154.1,418.7c-0.2,0-0.4,0-0.7,0c-1.3,0-2.1,0.7-2.1,2.4v3.9h-1.5v-7.7h1.5v1.3c0.6-1.2,1.5-1.5,2.3-1.5
		c0.2,0,0.4,0,0.5,0V418.7z"/>
	<path fill="#646565" d="M158.3,425.2c-1.8,0-2.9-1.3-2.9-3.1v-4.9h1.5v4.6c0,1.1,0.5,2,1.7,2c1.2,0,1.8-0.8,1.8-2v-4.6h1.5v6.3
		c0,0.6,0,1.2,0.1,1.4h-1.4c0-0.2-0.1-0.6-0.1-0.9C160.1,424.8,159.2,425.2,158.3,425.2z"/>
	<path fill="#646565" d="M165,421.1c0,1.8,1.1,2.7,2.4,2.7c1.4,0,2-1,2.1-1.6l1.3,0.6c-0.4,1.1-1.5,2.4-3.5,2.4
		c-2.2,0-3.9-1.8-3.9-4.1c0-2.4,1.7-4.1,3.9-4.1c2,0,3.1,1.3,3.4,2.4l-1.4,0.6c-0.2-0.8-0.8-1.6-2.1-1.6
		C166.2,418.4,165,419.3,165,421.1z"/>
	<path fill="#646565" d="M174.3,417.2h1.7v1.4h-1.7v4c0,0.7,0.3,1.1,1.1,1.1c0.2,0,0.5,0,0.6-0.1v1.3c-0.1,0-0.5,0.1-1,0.1
		c-1.3,0-2.1-0.8-2.1-2.2v-4.2h-1.5v-1.4h0.4c0.8,0,1.2-0.5,1.2-1.2v-1.2h1.4V417.2z"/>
	<path fill="#646565" d="M178.4,413.2c0.6,0,1.1,0.5,1.1,1.1c0,0.6-0.5,1.1-1.1,1.1c-0.6,0-1.1-0.5-1.1-1.1
		C177.3,413.7,177.8,413.2,178.4,413.2z M177.7,424.9v-7.7h1.5v7.7H177.7z"/>
	<path fill="#646565" d="M188.6,421.1c0,2.4-1.6,4.1-3.9,4.1c-2.3,0-3.9-1.7-3.9-4.1c0-2.3,1.6-4.1,3.9-4.1
		C187,417,188.6,418.7,188.6,421.1z M187.1,421.1c0-1.8-1.1-2.7-2.4-2.7c-1.3,0-2.4,1-2.4,2.7c0,1.8,1.1,2.8,2.4,2.8
		C186,423.8,187.1,422.9,187.1,421.1z"/>
	<path fill="#646565" d="M191.7,424.9h-1.5v-7.7h1.5v1.1c0.6-1,1.5-1.3,2.4-1.3c1.8,0,2.8,1.3,2.8,3v4.9h-1.5v-4.6
		c0-1.1-0.4-1.9-1.8-1.9c-1.2,0-1.8,0.9-1.8,2.1V424.9z"/>
	<path fill="#646565" d="M199.5,422.4c0.1,0.8,0.7,1.4,1.8,1.4c0.8,0,1.3-0.5,1.3-1c0-0.5-0.4-0.8-1-1l-1.3-0.3
		c-1.2-0.3-1.9-1.1-1.9-2.2c0-1.3,1.2-2.4,2.7-2.4c2.1,0,2.8,1.4,2.9,2.1l-1.3,0.5c-0.1-0.4-0.4-1.3-1.6-1.3c-0.8,0-1.3,0.5-1.3,1
		c0,0.5,0.3,0.8,0.9,0.9l1.2,0.3c1.4,0.3,2.1,1.2,2.1,2.3c0,1.1-0.9,2.4-2.8,2.4c-2.1,0-3-1.4-3.1-2.2L199.5,422.4z"/>
	<path fill="#646565" d="M211.3,420.5l2.1-0.3c0.5-0.1,0.6-0.3,0.6-0.6c0-0.8-0.5-1.4-1.7-1.4c-1.1,0-1.6,0.7-1.7,1.6l-1.4-0.3
		c0.2-1.5,1.5-2.5,3.2-2.5c2.3,0,3.2,1.3,3.2,2.8v3.9c0,0.7,0.1,1.1,0.1,1.3h-1.5c0-0.2-0.1-0.5-0.1-1c-0.3,0.5-1.1,1.3-2.5,1.3
		c-1.6,0-2.6-1.1-2.6-2.3C209,421.5,210,420.7,211.3,420.5z M214,421.6v-0.4l-2.4,0.4c-0.6,0.1-1.1,0.5-1.1,1.2
		c0,0.6,0.5,1.1,1.2,1.1C213,423.9,214,423.3,214,421.6z"/>
	<path fill="#646565" d="M219,424.9h-1.5v-7.7h1.5v1.1c0.6-1,1.5-1.3,2.4-1.3c1.8,0,2.8,1.3,2.8,3v4.9h-1.5v-4.6
		c0-1.1-0.4-1.9-1.8-1.9c-1.2,0-1.8,0.9-1.8,2.1V424.9z"/>
	<path fill="#646565" d="M231.6,423.8c-0.4,0.7-1.2,1.4-2.4,1.4c-2.3,0-3.6-1.8-3.6-4.1c0-2.2,1.5-4,3.6-4c1.4,0,2.1,0.7,2.4,1.3v-5
		h1.5v10.2c0,0.7,0.1,1.3,0.1,1.4h-1.5c0-0.2-0.1-0.6-0.1-1V423.8z M229.4,423.8c1.4,0,2.2-1.2,2.2-2.8s-0.8-2.7-2.2-2.7
		c-1.4,0-2.3,1.1-2.3,2.7C227.1,422.6,227.9,423.8,229.4,423.8z"/>
	<path fill="#646565" d="M244.9,417.2l2,5.8l1.7-5.8h1.6l-2.5,7.7h-1.6l-2-5.9l-2,5.9h-1.6l-2.5-7.7h1.6l1.7,5.8l2-5.8H244.9z"/>
	<path fill="#646565" d="M253.1,420.5l2.1-0.3c0.5-0.1,0.6-0.3,0.6-0.6c0-0.8-0.5-1.4-1.7-1.4c-1.1,0-1.6,0.7-1.7,1.6l-1.4-0.3
		c0.2-1.5,1.5-2.5,3.2-2.5c2.3,0,3.2,1.3,3.2,2.8v3.9c0,0.7,0.1,1.1,0.1,1.3h-1.5c0-0.2-0.1-0.5-0.1-1c-0.3,0.5-1.1,1.3-2.5,1.3
		c-1.6,0-2.6-1.1-2.6-2.3C250.8,421.5,251.8,420.7,253.1,420.5z M255.8,421.6v-0.4l-2.4,0.4c-0.6,0.1-1.1,0.5-1.1,1.2
		c0,0.6,0.5,1.1,1.2,1.1C254.8,423.9,255.8,423.3,255.8,421.6z"/>
	<path fill="#646565" d="M260,413.2c0.6,0,1.1,0.5,1.1,1.1c0,0.6-0.5,1.1-1.1,1.1c-0.6,0-1.1-0.5-1.1-1.1
		C259,413.7,259.5,413.2,260,413.2z M259.3,424.9v-7.7h1.5v7.7H259.3z"/>
	<path fill="#646565" d="M265.1,417.2h1.7v1.4h-1.7v4c0,0.7,0.3,1.1,1.1,1.1c0.2,0,0.5,0,0.6-0.1v1.3c-0.1,0-0.5,0.1-1,0.1
		c-1.3,0-2.1-0.8-2.1-2.2v-4.2h-1.5v-1.4h0.4c0.8,0,1.2-0.5,1.2-1.2v-1.2h1.4V417.2z"/>
	<path fill="#646565" d="M127.4,437.8v6.3h-1.6v-6.3h-1.4v-1.4h1.4v-1.3c0-1.7,1.1-2.6,2.5-2.6c0.5,0,0.8,0.1,0.9,0.2v1.3
		c-0.1,0-0.3-0.1-0.7-0.1c-0.5,0-1.2,0.3-1.2,1.3v1.2h1.9v1.4H127.4z"/>
	<path fill="#646565" d="M137.4,440.3c0,2.4-1.6,4.1-3.9,4.1s-3.9-1.7-3.9-4.1c0-2.3,1.6-4.1,3.9-4.1S137.4,437.9,137.4,440.3z
		 M135.9,440.3c0-1.8-1.1-2.7-2.4-2.7s-2.4,1-2.4,2.7c0,1.8,1.1,2.8,2.4,2.8S135.9,442.1,135.9,440.3z"/>
	<path fill="#646565" d="M143.3,438c-0.2,0-0.4,0-0.7,0c-1.3,0-2.1,0.7-2.1,2.4v3.9H139v-7.7h1.5v1.3c0.6-1.2,1.5-1.5,2.3-1.5
		c0.2,0,0.4,0,0.5,0V438z"/>
	<path fill="#646565" d="M150.3,436.4h1.7v1.4h-1.7v4c0,0.7,0.3,1.1,1.1,1.1c0.2,0,0.5,0,0.6-0.1v1.3c-0.1,0-0.5,0.1-1,0.1
		c-1.3,0-2.1-0.8-2.1-2.2v-4.2h-1.5v-1.4h0.4c0.8,0,1.2-0.5,1.2-1.2V434h1.4V436.4z"/>
	<path fill="#646565" d="M155.1,444.1h-1.5v-11.6h1.5v4.8c0.6-0.8,1.5-1.1,2.3-1.1c1.8,0,2.8,1.3,2.8,3v4.9h-1.5v-4.6
		c0-1.1-0.4-1.9-1.8-1.9c-1.2,0-1.8,0.9-1.8,2V444.1z"/>
	<path fill="#646565" d="M169,441.9c-0.4,1.4-1.7,2.4-3.5,2.4c-2.1,0-3.9-1.5-3.9-4.1c0-2.4,1.7-4.1,3.7-4.1c2.4,0,3.7,1.6,3.7,4
		c0,0.2,0,0.4,0,0.5h-5.8c0,1.4,1,2.3,2.3,2.3c1.2,0,1.9-0.7,2.2-1.6L169,441.9z M167.5,439.5c0-1.1-0.8-2-2.1-2c-1.3,0-2,1-2.1,2
		H167.5z"/>
	<path fill="#646565" d="M176.3,436.4h1.7v1.4h-1.7v4c0,0.7,0.3,1.1,1.1,1.1c0.2,0,0.5,0,0.6-0.1v1.3c-0.1,0-0.5,0.1-1,0.1
		c-1.3,0-2.1-0.8-2.1-2.2v-4.2h-1.5v-1.4h0.4c0.8,0,1.2-0.5,1.2-1.2V434h1.4V436.4z"/>
	<path fill="#646565" d="M183.8,438c-0.2,0-0.4,0-0.7,0c-1.3,0-2.1,0.7-2.1,2.4v3.9h-1.5v-7.7h1.5v1.3c0.6-1.2,1.5-1.5,2.3-1.5
		c0.2,0,0.4,0,0.5,0V438z"/>
	<path fill="#646565" d="M186.9,439.7l2.1-0.3c0.5-0.1,0.6-0.3,0.6-0.6c0-0.8-0.5-1.4-1.7-1.4c-1.1,0-1.6,0.7-1.7,1.6l-1.4-0.3
		c0.2-1.5,1.5-2.5,3.2-2.5c2.3,0,3.2,1.3,3.2,2.8v3.9c0,0.7,0.1,1.1,0.1,1.3h-1.5c0-0.2-0.1-0.5-0.1-1c-0.3,0.5-1.1,1.3-2.5,1.3
		c-1.6,0-2.6-1.1-2.6-2.3C184.6,440.7,185.6,439.9,186.9,439.7z M189.6,440.8v-0.4l-2.4,0.4c-0.6,0.1-1.1,0.5-1.1,1.2
		c0,0.6,0.5,1.1,1.2,1.1C188.6,443.1,189.6,442.5,189.6,440.8z"/>
	<path fill="#646565" d="M194.6,444.1h-1.5v-7.7h1.5v1.1c0.6-1,1.5-1.3,2.4-1.3c1.8,0,2.8,1.3,2.8,3v4.9h-1.5v-4.6
		c0-1.1-0.4-1.9-1.8-1.9c-1.2,0-1.8,0.9-1.8,2.1V444.1z"/>
	<path fill="#646565" d="M202.4,441.6c0.1,0.8,0.7,1.4,1.8,1.4c0.8,0,1.3-0.5,1.3-1c0-0.5-0.4-0.8-1-1l-1.3-0.3
		c-1.2-0.3-1.9-1.1-1.9-2.2c0-1.3,1.2-2.4,2.7-2.4c2.1,0,2.8,1.4,2.9,2.1l-1.3,0.5c-0.1-0.4-0.4-1.3-1.6-1.3c-0.8,0-1.3,0.5-1.3,1
		c0,0.5,0.3,0.8,0.9,0.9l1.2,0.3c1.4,0.3,2.1,1.2,2.1,2.3c0,1.1-0.9,2.4-2.8,2.4c-2.1,0-3-1.4-3.1-2.2L202.4,441.6z"/>
	<path fill="#646565" d="M210.4,439.7l2.1-0.3c0.5-0.1,0.6-0.3,0.6-0.6c0-0.8-0.5-1.4-1.7-1.4c-1.1,0-1.6,0.7-1.7,1.6l-1.4-0.3
		c0.2-1.5,1.5-2.5,3.2-2.5c2.3,0,3.2,1.3,3.2,2.8v3.9c0,0.7,0.1,1.1,0.1,1.3h-1.5c0-0.2-0.1-0.5-0.1-1c-0.3,0.5-1.1,1.3-2.5,1.3
		c-1.6,0-2.6-1.1-2.6-2.3C208.1,440.7,209.1,439.9,210.4,439.7z M213.1,440.8v-0.4l-2.4,0.4c-0.6,0.1-1.1,0.5-1.1,1.2
		c0,0.6,0.5,1.1,1.2,1.1C212.1,443.1,213.1,442.5,213.1,440.8z"/>
	<path fill="#646565" d="M217.5,440.3c0,1.8,1.1,2.7,2.4,2.7c1.4,0,2-1,2.1-1.6l1.3,0.6c-0.4,1.1-1.5,2.4-3.5,2.4
		c-2.2,0-3.9-1.8-3.9-4.1c0-2.4,1.7-4.1,3.9-4.1c2,0,3.1,1.3,3.4,2.4l-1.4,0.6c-0.2-0.8-0.8-1.6-2.1-1.6
		C218.6,437.6,217.5,438.5,217.5,440.3z"/>
	<path fill="#646565" d="M226.8,436.4h1.7v1.4h-1.7v4c0,0.7,0.3,1.1,1.1,1.1c0.2,0,0.5,0,0.6-0.1v1.3c-0.1,0-0.5,0.1-1,0.1
		c-1.3,0-2.1-0.8-2.1-2.2v-4.2h-1.5v-1.4h0.4c0.8,0,1.2-0.5,1.2-1.2V434h1.4V436.4z"/>
	<path fill="#646565" d="M230.8,432.4c0.6,0,1.1,0.5,1.1,1.1c0,0.6-0.5,1.1-1.1,1.1c-0.6,0-1.1-0.5-1.1-1.1
		C229.8,432.9,230.3,432.4,230.8,432.4z M230.1,444.1v-7.7h1.5v7.7H230.1z"/>
	<path fill="#646565" d="M241.1,440.3c0,2.4-1.6,4.1-3.9,4.1c-2.3,0-3.9-1.7-3.9-4.1c0-2.3,1.6-4.1,3.9-4.1
		C239.4,436.2,241.1,437.9,241.1,440.3z M239.5,440.3c0-1.8-1.1-2.7-2.4-2.7c-1.3,0-2.4,1-2.4,2.7c0,1.8,1.1,2.8,2.4,2.8
		C238.4,443,239.5,442.1,239.5,440.3z"/>
	<path fill="#646565" d="M244.2,444.1h-1.5v-7.7h1.5v1.1c0.6-1,1.5-1.3,2.4-1.3c1.8,0,2.8,1.3,2.8,3v4.9h-1.5v-4.6
		c0-1.1-0.4-1.9-1.8-1.9c-1.2,0-1.8,0.9-1.8,2.1V444.1z"/>
	<path fill="#646565" d="M257,436.4h1.7v1.4H257v4c0,0.7,0.3,1.1,1.1,1.1c0.2,0,0.5,0,0.6-0.1v1.3c-0.1,0-0.5,0.1-1,0.1
		c-1.3,0-2.1-0.8-2.1-2.2v-4.2h-1.5v-1.4h0.4c0.8,0,1.2-0.5,1.2-1.2V434h1.4V436.4z"/>
	<path fill="#646565" d="M267.5,440.3c0,2.4-1.6,4.1-3.9,4.1c-2.3,0-3.9-1.7-3.9-4.1c0-2.3,1.6-4.1,3.9-4.1
		C265.9,436.2,267.5,437.9,267.5,440.3z M266,440.3c0-1.8-1.1-2.7-2.4-2.7c-1.3,0-2.4,1-2.4,2.7c0,1.8,1.1,2.8,2.4,2.8
		C264.9,443,266,442.1,266,440.3z"/>
	<path fill="#646565" d="M125.3,463.3v-11.6h1.5v5c0.4-0.7,1.3-1.3,2.5-1.3c2.3,0,3.5,1.8,3.5,4c0,2.3-1.3,4.1-3.6,4.1
		c-1.1,0-2-0.5-2.5-1.3v1.1H125.3z M129.1,456.7c-1.3,0-2.3,1-2.3,2.7c0,1.7,1,2.8,2.3,2.8c1.4,0,2.3-1.1,2.3-2.8
		C131.4,457.8,130.5,456.7,129.1,456.7z"/>
	<path fill="#646565" d="M141.2,461.1c-0.4,1.4-1.7,2.4-3.5,2.4c-2.1,0-3.9-1.5-3.9-4.1c0-2.4,1.7-4.1,3.7-4.1c2.4,0,3.7,1.6,3.7,4
		c0,0.2,0,0.4,0,0.5h-5.8c0,1.4,1,2.3,2.3,2.3c1.2,0,1.9-0.7,2.2-1.6L141.2,461.1z M139.7,458.7c0-1.1-0.8-2-2.1-2c-1.3,0-2,1-2.1,2
		H139.7z"/>
	<path fill="#646565" d="M146.5,466.4v-10.7h1.5v1.2c0.4-0.8,1.3-1.4,2.6-1.4c2.3,0,3.5,1.8,3.5,4c0,2.3-1.3,4.1-3.6,4.1
		c-1.2,0-2.1-0.6-2.5-1.2v4.1H146.5z M150.3,456.8c-1.4,0-2.3,1.2-2.3,2.7c0,1.6,0.9,2.7,2.3,2.7c1.4,0,2.3-1.1,2.3-2.7
		C152.6,457.9,151.7,456.8,150.3,456.8z"/>
	<path fill="#646565" d="M160,457.2c-0.2,0-0.4,0-0.7,0c-1.3,0-2.1,0.7-2.1,2.4v3.9h-1.5v-7.7h1.5v1.3c0.6-1.2,1.5-1.5,2.3-1.5
		c0.2,0,0.4,0,0.5,0V457.2z"/>
	<path fill="#646565" d="M168.4,459.5c0,2.4-1.6,4.1-3.9,4.1c-2.3,0-3.9-1.7-3.9-4.1c0-2.3,1.6-4.1,3.9-4.1
		C166.8,455.4,168.4,457.1,168.4,459.5z M166.9,459.5c0-1.8-1.1-2.7-2.4-2.7c-1.3,0-2.4,1-2.4,2.7c0,1.8,1.1,2.8,2.4,2.8
		C165.8,462.2,166.9,461.3,166.9,459.5z"/>
	<path fill="#646565" d="M170.9,459.5c0,1.8,1.1,2.7,2.4,2.7c1.4,0,2-1,2.1-1.6l1.3,0.6c-0.4,1.1-1.5,2.4-3.5,2.4
		c-2.2,0-3.9-1.8-3.9-4.1c0-2.4,1.7-4.1,3.9-4.1c2,0,3.1,1.3,3.4,2.4l-1.4,0.6c-0.2-0.8-0.8-1.6-2.1-1.6
		C172,456.8,170.9,457.7,170.9,459.5z"/>
	<path fill="#646565" d="M184.8,461.1c-0.4,1.4-1.7,2.4-3.5,2.4c-2.1,0-3.9-1.5-3.9-4.1c0-2.4,1.7-4.1,3.7-4.1c2.4,0,3.7,1.6,3.7,4
		c0,0.2,0,0.4,0,0.5H179c0,1.4,1,2.3,2.3,2.3c1.2,0,1.9-0.7,2.2-1.6L184.8,461.1z M183.3,458.7c0-1.1-0.8-2-2.1-2c-1.3,0-2,1-2.1,2
		H183.3z"/>
	<path fill="#646565" d="M187.1,460.8c0.1,0.8,0.7,1.4,1.8,1.4c0.8,0,1.3-0.5,1.3-1c0-0.5-0.4-0.8-1-1l-1.3-0.3
		c-1.2-0.3-1.9-1.1-1.9-2.2c0-1.3,1.2-2.4,2.7-2.4c2.1,0,2.8,1.4,2.9,2.1l-1.3,0.5c-0.1-0.4-0.4-1.3-1.6-1.3c-0.8,0-1.3,0.5-1.3,1
		c0,0.5,0.3,0.8,0.9,0.9l1.2,0.3c1.4,0.3,2.1,1.2,2.1,2.3c0,1.1-0.9,2.4-2.8,2.4c-2.1,0-3-1.4-3.1-2.2L187.1,460.8z"/>
	<path fill="#646565" d="M194,460.8c0.1,0.8,0.7,1.4,1.8,1.4c0.8,0,1.3-0.5,1.3-1c0-0.5-0.4-0.8-1-1l-1.3-0.3
		c-1.2-0.3-1.9-1.1-1.9-2.2c0-1.3,1.2-2.4,2.7-2.4c2.1,0,2.8,1.4,2.9,2.1l-1.3,0.5c-0.1-0.4-0.4-1.3-1.6-1.3c-0.8,0-1.3,0.5-1.3,1
		c0,0.5,0.3,0.8,0.9,0.9l1.2,0.3c1.4,0.3,2.1,1.2,2.1,2.3c0,1.1-0.9,2.4-2.8,2.4c-2.1,0-3-1.4-3.1-2.2L194,460.8z"/>
	<path fill="#646565" d="M206.9,461.1c-0.4,1.4-1.7,2.4-3.5,2.4c-2.1,0-3.9-1.5-3.9-4.1c0-2.4,1.7-4.1,3.7-4.1c2.4,0,3.7,1.6,3.7,4
		c0,0.2,0,0.4,0,0.5h-5.8c0,1.4,1,2.3,2.3,2.3c1.2,0,1.9-0.7,2.2-1.6L206.9,461.1z M205.4,458.7c0-1.1-0.8-2-2.1-2c-1.3,0-2,1-2.1,2
		H205.4z"/>
	<path fill="#646565" d="M213.9,462.2c-0.4,0.7-1.2,1.4-2.4,1.4c-2.3,0-3.6-1.8-3.6-4.1c0-2.2,1.5-4,3.6-4c1.4,0,2.1,0.7,2.4,1.3v-5
		h1.5v10.2c0,0.7,0.1,1.3,0.1,1.4H214c0-0.2-0.1-0.6-0.1-1V462.2z M211.7,462.2c1.4,0,2.2-1.2,2.2-2.8c0-1.6-0.8-2.7-2.2-2.7
		c-1.4,0-2.3,1.1-2.3,2.7C209.4,461,210.3,462.2,211.7,462.2z"/>
	<path fill="#646565" d="M218.6,461.2c0.6,0,1.1,0.5,1.1,1.1s-0.5,1.1-1.1,1.1c-0.6,0-1.1-0.5-1.1-1.1S218,461.2,218.6,461.2z"/>
	<path fill="#646565" d="M224.3,452h1.9l2.9,5.1l2.9-5.1h1.8l-4,6.5v4.9h-1.6v-4.9L224.3,452z"/>
	<path fill="#646565" d="M240.8,459.5c0,2.4-1.6,4.1-3.9,4.1c-2.3,0-3.9-1.7-3.9-4.1c0-2.3,1.6-4.1,3.9-4.1
		C239.2,455.4,240.8,457.1,240.8,459.5z M239.3,459.5c0-1.8-1.1-2.7-2.4-2.7c-1.3,0-2.4,1-2.4,2.7c0,1.8,1.1,2.8,2.4,2.8
		C238.2,462.2,239.3,461.3,239.3,459.5z"/>
	<path fill="#646565" d="M245.1,463.6c-1.8,0-2.9-1.3-2.9-3.1v-4.8h1.5v4.6c0,1.1,0.5,2,1.7,2c1.2,0,1.8-0.8,1.8-2v-4.6h1.5v6.3
		c0,0.6,0,1.2,0.1,1.4h-1.4c0-0.2-0.1-0.6-0.1-0.9C247,463.2,246,463.6,245.1,463.6z"/>
	<path fill="#646565" d="M254.7,463.3v-7.7h1.4v1c0.5-0.8,1.4-1.2,2.3-1.2c1,0,1.9,0.5,2.3,1.5c0.6-1.1,1.6-1.5,2.6-1.5
		c1.3,0,2.7,0.9,2.7,2.9v5h-1.5v-4.8c0-1-0.5-1.8-1.6-1.8c-1.1,0-1.8,0.8-1.8,1.9v4.7h-1.5v-4.8c0-1-0.5-1.8-1.6-1.8
		c-1.1,0-1.8,0.8-1.8,2v4.6H254.7z"/>
	<path fill="#646565" d="M270,458.9l2.1-0.3c0.5-0.1,0.6-0.3,0.6-0.6c0-0.8-0.5-1.4-1.7-1.4c-1.1,0-1.6,0.7-1.7,1.6l-1.4-0.3
		c0.2-1.5,1.5-2.5,3.2-2.5c2.3,0,3.2,1.3,3.2,2.8v3.9c0,0.7,0.1,1.1,0.1,1.3h-1.5c0-0.2-0.1-0.5-0.1-1c-0.3,0.5-1.1,1.3-2.5,1.3
		c-1.6,0-2.6-1.1-2.6-2.3C267.7,459.9,268.7,459.1,270,458.9z M272.7,460v-0.4l-2.4,0.4c-0.6,0.1-1.1,0.5-1.1,1.2
		c0,0.6,0.5,1.1,1.2,1.1C271.7,462.3,272.7,461.7,272.7,460z"/>
	<path fill="#646565" d="M276.3,466.5l1.9-4.1l-3.3-6.9h1.7l2.4,5.3l2.3-5.3h1.6l-5,10.9H276.3z"/>
	<path fill="#646565" d="M125.3,482.5v-11.6h1.5v5c0.4-0.7,1.3-1.3,2.5-1.3c2.3,0,3.5,1.8,3.5,4c0,2.3-1.3,4.1-3.6,4.1
		c-1.1,0-2-0.5-2.5-1.3v1.1H125.3z M129.1,475.9c-1.3,0-2.3,1-2.3,2.7c0,1.7,1,2.8,2.3,2.8c1.4,0,2.3-1.1,2.3-2.8
		C131.4,477,130.5,475.9,129.1,475.9z"/>
	<path fill="#646565" d="M141.2,480.3c-0.4,1.4-1.7,2.4-3.5,2.4c-2.1,0-3.9-1.5-3.9-4.1c0-2.4,1.7-4.1,3.7-4.1c2.4,0,3.7,1.6,3.7,4
		c0,0.2,0,0.4,0,0.5h-5.8c0,1.4,1,2.3,2.3,2.3c1.2,0,1.9-0.7,2.2-1.6L141.2,480.3z M139.7,477.9c0-1.1-0.8-2-2.1-2c-1.3,0-2,1-2.1,2
		H139.7z"/>
	<path fill="#646565" d="M148.4,478.1l2.1-0.3c0.5-0.1,0.6-0.3,0.6-0.6c0-0.8-0.5-1.4-1.7-1.4c-1.1,0-1.6,0.7-1.7,1.6l-1.4-0.3
		c0.2-1.5,1.5-2.5,3.2-2.5c2.3,0,3.2,1.3,3.2,2.8v3.9c0,0.7,0.1,1.1,0.1,1.3h-1.5c0-0.2-0.1-0.5-0.1-1c-0.3,0.5-1.1,1.3-2.5,1.3
		c-1.6,0-2.6-1.1-2.6-2.3C146.1,479.1,147.1,478.3,148.4,478.1z M151.1,479.2v-0.4l-2.4,0.4c-0.6,0.1-1.1,0.5-1.1,1.2
		c0,0.6,0.5,1.1,1.2,1.1C150.1,481.5,151.1,480.9,151.1,479.2z"/>
	<path fill="#646565" d="M155.2,480c0.1,0.8,0.7,1.4,1.8,1.4c0.8,0,1.3-0.5,1.3-1c0-0.5-0.4-0.8-1-1l-1.3-0.3
		c-1.2-0.3-1.9-1.1-1.9-2.2c0-1.3,1.2-2.4,2.7-2.4c2.1,0,2.8,1.4,2.9,2.1l-1.3,0.5c-0.1-0.4-0.4-1.3-1.6-1.3c-0.8,0-1.3,0.5-1.3,1
		c0,0.5,0.3,0.8,0.9,0.9l1.2,0.3c1.4,0.3,2.1,1.2,2.1,2.3c0,1.1-0.9,2.4-2.8,2.4c-2.1,0-3-1.4-3.1-2.2L155.2,480z"/>
	<path fill="#646565" d="M165.1,478.1l3.3,4.5h-1.9l-2.5-3.4l-1.1,1.1v2.3h-1.5v-11.6h1.5v7.3l3.3-3.4h2.1L165.1,478.1z"/>
	<path fill="#646565" d="M175.9,480.3c-0.4,1.4-1.7,2.4-3.5,2.4c-2.1,0-3.9-1.5-3.9-4.1c0-2.4,1.7-4.1,3.7-4.1c2.4,0,3.7,1.6,3.7,4
		c0,0.2,0,0.4,0,0.5h-5.8c0,1.4,1,2.3,2.3,2.3c1.2,0,1.9-0.7,2.2-1.6L175.9,480.3z M174.4,477.9c0-1.1-0.8-2-2.1-2c-1.3,0-2,1-2.1,2
		H174.4z"/>
	<path fill="#646565" d="M182.9,481.4c-0.4,0.7-1.2,1.4-2.4,1.4c-2.3,0-3.6-1.8-3.6-4.1c0-2.2,1.5-4,3.6-4c1.4,0,2.1,0.7,2.4,1.3v-5
		h1.5v10.2c0,0.7,0.1,1.3,0.1,1.4H183c0-0.2-0.1-0.6-0.1-1V481.4z M180.7,481.4c1.4,0,2.2-1.2,2.2-2.8c0-1.6-0.8-2.7-2.2-2.7
		c-1.4,0-2.3,1.1-2.3,2.7C178.4,480.2,179.2,481.4,180.7,481.4z"/>
	<path fill="#646565" d="M192.3,474.8h1.7v1.4h-1.7v4c0,0.7,0.3,1.1,1.1,1.1c0.2,0,0.5,0,0.6-0.1v1.3c-0.1,0-0.5,0.1-1,0.1
		c-1.3,0-2.1-0.8-2.1-2.2v-4.2h-1.5v-1.4h0.4c0.8,0,1.2-0.5,1.2-1.2v-1.2h1.4V474.8z"/>
	<path fill="#646565" d="M202.8,478.7c0,2.4-1.6,4.1-3.9,4.1c-2.3,0-3.9-1.7-3.9-4.1c0-2.3,1.6-4.1,3.9-4.1
		C201.2,474.6,202.8,476.3,202.8,478.7z M201.3,478.7c0-1.8-1.1-2.7-2.4-2.7c-1.3,0-2.4,1-2.4,2.7c0,1.8,1.1,2.8,2.4,2.8
		C200.2,481.4,201.3,480.5,201.3,478.7z"/>
	<path fill="#646565" d="M208.7,480c0.1,0.8,0.7,1.4,1.8,1.4c0.8,0,1.3-0.5,1.3-1c0-0.5-0.4-0.8-1-1l-1.3-0.3
		c-1.2-0.3-1.9-1.1-1.9-2.2c0-1.3,1.2-2.4,2.7-2.4c2.1,0,2.8,1.4,2.9,2.1l-1.3,0.5c-0.1-0.4-0.4-1.3-1.6-1.3c-0.8,0-1.3,0.5-1.3,1
		c0,0.5,0.3,0.8,0.9,0.9l1.2,0.3c1.4,0.3,2.1,1.2,2.1,2.3c0,1.1-0.9,2.4-2.8,2.4c-2.1,0-3-1.4-3.1-2.2L208.7,480z"/>
	<path fill="#646565" d="M215.7,470.8c0.6,0,1.1,0.5,1.1,1.1c0,0.6-0.5,1.1-1.1,1.1c-0.6,0-1.1-0.5-1.1-1.1
		C214.7,471.3,215.1,470.8,215.7,470.8z M215,482.5v-7.7h1.5v7.7H215z"/>
	<path fill="#646565" d="M219.6,482.6c0.1,1.1,0.9,1.9,2.1,1.9c1.6,0,2.4-0.8,2.4-2.5v-1.1c-0.4,0.7-1.2,1.3-2.4,1.3
		c-2,0-3.5-1.6-3.5-3.7c0-2.1,1.4-3.7,3.5-3.7c1.2,0,2,0.4,2.4,1.2v-1.1h1.5v7.1c0,2-1,3.9-3.9,3.9c-1.9,0-3.4-1.2-3.6-2.9
		L219.6,482.6z M224.1,478.4c0-1.5-0.9-2.5-2.2-2.5c-1.3,0-2.2,1-2.2,2.5c0,1.5,0.9,2.5,2.2,2.5
		C223.2,480.9,224.1,479.9,224.1,478.4z"/>
	<path fill="#646565" d="M229.2,482.5h-1.5v-7.7h1.5v1.1c0.6-1,1.5-1.3,2.4-1.3c1.8,0,2.8,1.3,2.8,3v4.9h-1.5v-4.6
		c0-1.1-0.4-1.9-1.8-1.9c-1.2,0-1.8,0.9-1.8,2.1V482.5z"/>
	<path fill="#646565" d="M247.2,478.7c0,2.4-1.6,4.1-3.9,4.1c-2.3,0-3.9-1.7-3.9-4.1c0-2.3,1.6-4.1,3.9-4.1
		C245.6,474.6,247.2,476.3,247.2,478.7z M245.7,478.7c0-1.8-1.1-2.7-2.4-2.7c-1.3,0-2.4,1-2.4,2.7c0,1.8,1.1,2.8,2.4,2.8
		C244.6,481.4,245.7,480.5,245.7,478.7z"/>
	<path fill="#646565" d="M253.1,476.4c-0.2,0-0.4,0-0.7,0c-1.3,0-2.1,0.7-2.1,2.4v3.9h-1.5v-7.7h1.5v1.3c0.6-1.2,1.5-1.5,2.3-1.5
		c0.2,0,0.4,0,0.5,0V476.4z"/>
	<path fill="#646565" d="M132,499.5c-0.4,1.4-1.7,2.4-3.5,2.4c-2.1,0-3.9-1.5-3.9-4.1c0-2.4,1.7-4.1,3.7-4.1c2.4,0,3.7,1.6,3.7,4
		c0,0.2,0,0.4,0,0.5h-5.8c0,1.4,1,2.3,2.3,2.3c1.2,0,1.9-0.7,2.2-1.6L132,499.5z M130.5,497.1c0-1.1-0.8-2-2.1-2c-1.3,0-2,1-2.1,2
		H130.5z"/>
	<path fill="#646565" d="M135.2,501.7h-1.5V494h1.5v1.1c0.6-1,1.5-1.3,2.4-1.3c1.8,0,2.8,1.3,2.8,3v4.9h-1.5v-4.6
		c0-1.1-0.4-1.9-1.8-1.9c-1.2,0-1.8,0.9-1.8,2.1V501.7z"/>
	<path fill="#646565" d="M144.4,494h1.7v1.4h-1.7v4c0,0.7,0.3,1.1,1.1,1.1c0.2,0,0.5,0,0.6-0.1v1.3c-0.1,0-0.5,0.1-1,0.1
		c-1.3,0-2.1-0.8-2.1-2.2v-4.2h-1.5V494h0.4c0.8,0,1.2-0.5,1.2-1.2v-1.2h1.4V494z"/>
	<path fill="#646565" d="M154.4,499.5c-0.4,1.4-1.7,2.4-3.5,2.4c-2.1,0-3.9-1.5-3.9-4.1c0-2.4,1.7-4.1,3.7-4.1c2.4,0,3.7,1.6,3.7,4
		c0,0.2,0,0.4,0,0.5h-5.8c0,1.4,1,2.3,2.3,2.3c1.2,0,1.9-0.7,2.2-1.6L154.4,499.5z M152.8,497.1c0-1.1-0.8-2-2.1-2c-1.3,0-2,1-2.1,2
		H152.8z"/>
	<path fill="#646565" d="M160.3,495.6c-0.2,0-0.4,0-0.7,0c-1.3,0-2.1,0.7-2.1,2.4v3.9H156V494h1.5v1.3c0.6-1.2,1.5-1.5,2.3-1.5
		c0.2,0,0.4,0,0.5,0V495.6z"/>
	<path fill="#646565" d="M165.5,504.9l1.9-4.1l-3.3-6.9h1.7l2.4,5.3l2.3-5.3h1.6l-5,10.9H165.5z"/>
	<path fill="#646565" d="M180.2,497.9c0,2.4-1.6,4.1-3.9,4.1c-2.3,0-3.9-1.7-3.9-4.1c0-2.3,1.6-4.1,3.9-4.1
		C178.6,493.8,180.2,495.5,180.2,497.9z M178.7,497.9c0-1.8-1.1-2.7-2.4-2.7c-1.3,0-2.4,1-2.4,2.7c0,1.8,1.1,2.8,2.4,2.8
		C177.5,500.6,178.7,499.7,178.7,497.9z"/>
	<path fill="#646565" d="M184.5,502c-1.8,0-2.9-1.3-2.9-3.1V494h1.5v4.6c0,1.1,0.5,2,1.7,2c1.2,0,1.8-0.8,1.8-2V494h1.5v6.3
		c0,0.6,0,1.2,0.1,1.4h-1.4c0-0.2-0.1-0.6-0.1-0.9C186.4,501.6,185.4,502,184.5,502z"/>
	<path fill="#646565" d="M194.7,495.6c-0.2,0-0.4,0-0.7,0c-1.3,0-2.1,0.7-2.1,2.4v3.9h-1.5V494h1.5v1.3c0.6-1.2,1.5-1.5,2.3-1.5
		c0.2,0,0.4,0,0.5,0V495.6z"/>
	<path fill="#646565" d="M201.4,497.1v4.6h-1.6v-11.3h4.1c2.1,0,3.5,1.5,3.5,3.4c0,1.9-1.4,3.3-3.5,3.3H201.4z M203.7,495.7
		c1.4,0,2.2-0.8,2.2-1.9c0-1.2-0.8-2-2.2-2h-2.3v3.9H203.7z"/>
	<path fill="#646565" d="M209.1,501.7v-11.3h1.6v11.3H209.1z"/>
	<path fill="#646565" d="M220.9,501.7l-6.1-9.3v9.3h-1.6v-11.3h2.1l5.7,8.7v-8.7h1.6v11.3H220.9z"/>
	<path fill="#646565" d="M225.9,499.6c0.6,0,1.1,0.5,1.1,1.1s-0.5,1.1-1.1,1.1c-0.6,0-1.1-0.5-1.1-1.1S225.3,499.6,225.9,499.6z"/>
</g>
<g>
	<path fill="#F68B3C" d="M131.8,587.4c-0.1-0.5-0.5-1.4-1.9-1.4c-0.9,0-1.6,0.6-1.6,1.2c0,0.5,0.3,0.9,1.1,1.1l1.5,0.3
		c2.2,0.4,3.3,1.8,3.3,3.4c0,1.8-1.5,3.6-4.2,3.6c-3.1,0-4.5-2-4.6-3.6l2.3-0.6c0.1,1,0.8,2,2.4,2c1,0,1.6-0.5,1.6-1.2
		c0-0.6-0.5-1-1.2-1.1l-1.6-0.3c-1.9-0.4-3.1-1.6-3.1-3.3c0-2.1,1.9-3.7,4.1-3.7c2.8,0,3.9,1.7,4.1,3L131.8,587.4z"/>
	<path fill="#F68B3C" d="M138.7,587.3h1.6v2.1h-1.6v3c0,0.7,0.4,0.8,0.9,0.8c0.3,0,0.5,0,0.6-0.1v2c-0.1,0-0.5,0.2-1.3,0.2
		c-1.6,0-2.7-1-2.7-2.6v-3.4h-1.4v-2.1h0.4c0.8,0,1.2-0.6,1.2-1.3v-1h2.2V587.3z"/>
	<path fill="#F68B3C" d="M148.8,593c-0.4,1.4-1.6,2.5-3.7,2.5c-2.2,0-4.1-1.6-4.1-4.2c0-2.6,1.9-4.2,4-4.2c2.5,0,4,1.5,4,4.1
		c0,0.3,0,0.7,0,0.8h-5.5c0,0.9,0.9,1.5,1.8,1.5c0.9,0,1.4-0.4,1.6-1L148.8,593z M146.6,590.4c0-0.6-0.4-1.3-1.6-1.3
		c-1,0-1.5,0.8-1.6,1.3H146.6z"/>
	<path fill="#F68B3C" d="M150.2,598.3v-11h2.4v0.8c0.3-0.5,1.2-1,2.3-1c2.3,0,3.7,1.8,3.7,4.1c0,2.4-1.6,4.2-3.8,4.2
		c-1,0-1.8-0.4-2.2-0.8v3.7H150.2z M154.4,589.3c-0.9,0-1.8,0.6-1.8,2c0,1.3,0.8,2,1.8,2c1,0,1.8-0.7,1.8-2S155.3,589.3,154.4,589.3
		z"/>
	<path fill="#F68B3C" d="M164.6,589.1l2.6-2.1h-4.3v-2.1h7.5v2l-2.6,2c1.6,0.1,2.9,1.4,2.9,3.2c0,1.8-1.5,3.5-4.1,3.5
		c-2.4,0-4-1.6-4.1-3.3l2.4-0.4c0,0.9,0.7,1.6,1.7,1.6s1.6-0.7,1.6-1.4c0-1-0.8-1.4-1.5-1.4c-0.3,0-0.7,0.1-0.9,0.2L164.6,589.1z"/>
	<path fill="#646565" d="M129.8,614.9h-1.7v4.6h-1.6v-11.3h4.3c2.1,0,3.5,1.5,3.5,3.4c0,1.6-1,2.9-2.8,3.2l2.7,4.8h-1.8L129.8,614.9
		z M130.5,613.5c1.3,0,2.1-0.8,2.1-1.9c0-1.2-0.9-2-2.1-2h-2.4v3.9H130.5z"/>
	<path fill="#646565" d="M142.3,617.3c-0.4,1.4-1.7,2.4-3.5,2.4c-2.1,0-3.9-1.5-3.9-4.1c0-2.4,1.7-4.1,3.7-4.1c2.4,0,3.7,1.6,3.7,4
		c0,0.2,0,0.4,0,0.5h-5.8c0,1.4,1,2.3,2.3,2.3c1.2,0,1.9-0.7,2.2-1.6L142.3,617.3z M140.8,614.9c0-1.1-0.8-2-2.1-2c-1.3,0-2,1-2.1,2
		H140.8z"/>
	<path fill="#646565" d="M144,619.5v-7.7h1.4v1c0.5-0.8,1.4-1.2,2.3-1.2c1,0,1.9,0.5,2.3,1.5c0.6-1.1,1.6-1.5,2.6-1.5
		c1.3,0,2.7,0.9,2.7,2.9v5h-1.5v-4.8c0-1-0.5-1.8-1.6-1.8c-1.1,0-1.8,0.8-1.8,1.9v4.7h-1.5v-4.8c0-1-0.5-1.8-1.6-1.8
		c-1.1,0-1.8,0.8-1.8,2v4.6H144z"/>
	<path fill="#646565" d="M164.6,615.6c0,2.4-1.6,4.1-3.9,4.1c-2.3,0-3.9-1.7-3.9-4.1c0-2.3,1.6-4.1,3.9-4.1
		C163,611.6,164.6,613.3,164.6,615.6z M163,615.6c0-1.8-1.1-2.7-2.4-2.7c-1.3,0-2.4,1-2.4,2.7c0,1.8,1.1,2.8,2.4,2.8
		C161.9,618.4,163,617.4,163,615.6z"/>
	<path fill="#646565" d="M169.5,619.5h-1.5l-3.1-7.7h1.7l2.2,5.9l2.2-5.9h1.6L169.5,619.5z"/>
	<path fill="#646565" d="M180.1,617.3c-0.4,1.4-1.7,2.4-3.5,2.4c-2.1,0-3.9-1.5-3.9-4.1c0-2.4,1.7-4.1,3.7-4.1c2.4,0,3.7,1.6,3.7,4
		c0,0.2,0,0.4,0,0.5h-5.8c0,1.4,1,2.3,2.3,2.3c1.2,0,1.9-0.7,2.2-1.6L180.1,617.3z M178.6,614.9c0-1.1-0.8-2-2.1-2c-1.3,0-2,1-2.1,2
		H178.6z"/>
	<path fill="#646565" d="M187.5,611.8h1.7v1.4h-1.7v4c0,0.7,0.3,1.1,1.1,1.1c0.2,0,0.5,0,0.6-0.1v1.3c-0.1,0-0.5,0.1-1,0.1
		c-1.3,0-2.1-0.8-2.1-2.2v-4.2h-1.5v-1.4h0.4c0.8,0,1.2-0.5,1.2-1.2v-1.2h1.4V611.8z"/>
	<path fill="#646565" d="M192.3,619.5h-1.5v-11.6h1.5v4.8c0.6-0.8,1.5-1.1,2.3-1.1c1.8,0,2.8,1.3,2.8,3v4.9h-1.5v-4.6
		c0-1.1-0.4-1.9-1.8-1.9c-1.2,0-1.8,0.9-1.8,2V619.5z"/>
	<path fill="#646565" d="M206.2,617.3c-0.4,1.4-1.7,2.4-3.5,2.4c-2.1,0-3.9-1.5-3.9-4.1c0-2.4,1.7-4.1,3.7-4.1c2.4,0,3.7,1.6,3.7,4
		c0,0.2,0,0.4,0,0.5h-5.8c0,1.4,1,2.3,2.3,2.3c1.2,0,1.9-0.7,2.2-1.6L206.2,617.3z M204.7,614.9c0-1.1-0.8-2-2.1-2c-1.3,0-2,1-2.1,2
		H204.7z"/>
	<path fill="#646565" d="M212.4,615.6c0,1.8,1.1,2.7,2.4,2.7c1.4,0,2-1,2.1-1.6l1.3,0.6c-0.4,1.1-1.5,2.4-3.5,2.4
		c-2.2,0-3.9-1.8-3.9-4.1c0-2.4,1.7-4.1,3.9-4.1c2,0,3.1,1.3,3.4,2.4l-1.4,0.6c-0.2-0.8-0.8-1.6-2.1-1.6
		C213.5,613,212.4,613.9,212.4,615.6z"/>
	<path fill="#646565" d="M221.4,615.1l2.1-0.3c0.5-0.1,0.6-0.3,0.6-0.6c0-0.8-0.5-1.4-1.7-1.4c-1.1,0-1.6,0.7-1.7,1.6l-1.4-0.3
		c0.2-1.5,1.5-2.5,3.2-2.5c2.3,0,3.2,1.3,3.2,2.8v3.9c0,0.7,0.1,1.1,0.1,1.3h-1.5c0-0.2-0.1-0.5-0.1-1c-0.3,0.5-1.1,1.3-2.5,1.3
		c-1.6,0-2.6-1.1-2.6-2.3C219.1,616.1,220.1,615.3,221.4,615.1z M224.1,616.2v-0.4l-2.4,0.4c-0.6,0.1-1.1,0.5-1.1,1.2
		c0,0.6,0.5,1.1,1.2,1.1C223.1,618.5,224.1,617.9,224.1,616.2z"/>
	<path fill="#646565" d="M231.9,613.3c-0.2,0-0.4,0-0.7,0c-1.3,0-2.1,0.7-2.1,2.4v3.9h-1.5v-7.7h1.5v1.3c0.6-1.2,1.5-1.5,2.3-1.5
		c0.2,0,0.4,0,0.5,0V613.3z"/>
	<path fill="#646565" d="M238.5,618.3c-0.4,0.7-1.2,1.4-2.4,1.4c-2.3,0-3.6-1.8-3.6-4.1c0-2.2,1.5-4,3.6-4c1.4,0,2.1,0.7,2.4,1.3v-5
		h1.5v10.2c0,0.7,0.1,1.3,0.1,1.4h-1.5c0-0.2-0.1-0.6-0.1-1V618.3z M236.3,618.4c1.4,0,2.2-1.2,2.2-2.8s-0.8-2.7-2.2-2.7
		c-1.4,0-2.3,1.1-2.3,2.7C234,617.2,234.8,618.4,236.3,618.4z"/>
	<path fill="#646565" d="M128.2,634.3l2.1-0.3c0.5-0.1,0.6-0.3,0.6-0.6c0-0.8-0.5-1.4-1.7-1.4c-1.1,0-1.6,0.7-1.7,1.6l-1.4-0.3
		c0.2-1.5,1.5-2.5,3.2-2.5c2.3,0,3.2,1.3,3.2,2.8v3.9c0,0.7,0.1,1.1,0.1,1.3H131c0-0.2-0.1-0.5-0.1-1c-0.3,0.5-1.1,1.3-2.5,1.3
		c-1.6,0-2.6-1.1-2.6-2.3C125.9,635.3,126.9,634.5,128.2,634.3z M130.9,635.4v-0.4l-2.4,0.4c-0.6,0.1-1.1,0.5-1.1,1.2
		c0,0.6,0.5,1.1,1.2,1.1C129.9,637.7,130.9,637.1,130.9,635.4z"/>
	<path fill="#646565" d="M136.4,632.4v6.3h-1.6v-6.3h-1.4V631h1.4v-1.3c0-1.7,1.1-2.6,2.5-2.6c0.5,0,0.8,0.1,0.9,0.2v1.3
		c-0.1,0-0.3-0.1-0.7-0.1c-0.5,0-1.2,0.3-1.2,1.3v1.2h1.9v1.4H136.4z"/>
	<path fill="#646565" d="M141.6,631h1.7v1.4h-1.7v4c0,0.7,0.3,1.1,1.1,1.1c0.2,0,0.5,0,0.6-0.1v1.3c-0.1,0-0.5,0.1-1,0.1
		c-1.3,0-2.1-0.8-2.1-2.2v-4.2h-1.5V631h0.4c0.8,0,1.2-0.5,1.2-1.2v-1.2h1.4V631z"/>
	<path fill="#646565" d="M151.5,636.5c-0.4,1.4-1.7,2.4-3.5,2.4c-2.1,0-3.9-1.5-3.9-4.1c0-2.4,1.7-4.1,3.7-4.1c2.4,0,3.7,1.6,3.7,4
		c0,0.2,0,0.4,0,0.5h-5.8c0,1.4,1,2.3,2.3,2.3c1.2,0,1.9-0.7,2.2-1.6L151.5,636.5z M150,634.1c0-1.1-0.8-2-2.1-2c-1.3,0-2,1-2.1,2
		H150z"/>
	<path fill="#646565" d="M157.5,632.5c-0.2,0-0.4,0-0.7,0c-1.3,0-2.1,0.7-2.1,2.4v3.9h-1.5V631h1.5v1.3c0.6-1.2,1.5-1.5,2.3-1.5
		c0.2,0,0.4,0,0.5,0V632.5z"/>
	<path fill="#646565" d="M164.4,631h1.7v1.4h-1.7v4c0,0.7,0.3,1.1,1.1,1.1c0.2,0,0.5,0,0.6-0.1v1.3c-0.1,0-0.5,0.1-1,0.1
		c-1.3,0-2.1-0.8-2.1-2.2v-4.2h-1.5V631h0.4c0.8,0,1.2-0.5,1.2-1.2v-1.2h1.4V631z"/>
	<path fill="#646565" d="M169.3,638.7h-1.5v-11.6h1.5v4.8c0.6-0.8,1.5-1.1,2.3-1.1c1.8,0,2.8,1.3,2.8,3v4.9h-1.5v-4.6
		c0-1.1-0.4-1.9-1.8-1.9c-1.2,0-1.8,0.9-1.8,2V638.7z"/>
	<path fill="#646565" d="M183.2,636.5c-0.4,1.4-1.7,2.4-3.5,2.4c-2.1,0-3.9-1.5-3.9-4.1c0-2.4,1.7-4.1,3.7-4.1c2.4,0,3.7,1.6,3.7,4
		c0,0.2,0,0.4,0,0.5h-5.8c0,1.4,1,2.3,2.3,2.3c1.2,0,1.9-0.7,2.2-1.6L183.2,636.5z M181.6,634.1c0-1.1-0.8-2-2.1-2c-1.3,0-2,1-2.1,2
		H181.6z"/>
	<path fill="#646565" d="M190.5,631h1.7v1.4h-1.7v4c0,0.7,0.3,1.1,1.1,1.1c0.2,0,0.5,0,0.6-0.1v1.3c-0.1,0-0.5,0.1-1,0.1
		c-1.3,0-2.1-0.8-2.1-2.2v-4.2h-1.5V631h0.4c0.8,0,1.2-0.5,1.2-1.2v-1.2h1.4V631z"/>
	<path fill="#646565" d="M198,632.5c-0.2,0-0.4,0-0.7,0c-1.3,0-2.1,0.7-2.1,2.4v3.9h-1.5V631h1.5v1.3c0.6-1.2,1.5-1.5,2.3-1.5
		c0.2,0,0.4,0,0.5,0V632.5z"/>
	<path fill="#646565" d="M201.1,634.3l2.1-0.3c0.5-0.1,0.6-0.3,0.6-0.6c0-0.8-0.5-1.4-1.7-1.4c-1.1,0-1.6,0.7-1.7,1.6l-1.4-0.3
		c0.2-1.5,1.5-2.5,3.2-2.5c2.3,0,3.2,1.3,3.2,2.8v3.9c0,0.7,0.1,1.1,0.1,1.3h-1.5c0-0.2-0.1-0.5-0.1-1c-0.3,0.5-1.1,1.3-2.5,1.3
		c-1.6,0-2.6-1.1-2.6-2.3C198.8,635.3,199.8,634.5,201.1,634.3z M203.8,635.4v-0.4l-2.4,0.4c-0.6,0.1-1.1,0.5-1.1,1.2
		c0,0.6,0.5,1.1,1.2,1.1C202.8,637.7,203.8,637.1,203.8,635.4z"/>
	<path fill="#646565" d="M208.8,638.7h-1.5V631h1.5v1.1c0.6-1,1.5-1.3,2.4-1.3c1.8,0,2.8,1.3,2.8,3v4.9h-1.5v-4.6
		c0-1.1-0.4-1.9-1.8-1.9c-1.2,0-1.8,0.9-1.8,2.1V638.7z"/>
	<path fill="#646565" d="M216.6,636.2c0.1,0.8,0.7,1.4,1.8,1.4c0.8,0,1.3-0.5,1.3-1c0-0.5-0.4-0.8-1-1l-1.3-0.3
		c-1.2-0.3-1.9-1.1-1.9-2.2c0-1.3,1.2-2.4,2.7-2.4c2.1,0,2.8,1.4,2.9,2.1l-1.3,0.5c-0.1-0.4-0.4-1.3-1.6-1.3c-0.8,0-1.3,0.5-1.3,1
		c0,0.5,0.3,0.8,0.9,0.9l1.2,0.3c1.4,0.3,2.1,1.2,2.1,2.3c0,1.1-0.9,2.4-2.8,2.4c-2.1,0-3-1.4-3.1-2.2L216.6,636.2z"/>
	<path fill="#646565" d="M224.6,634.3l2.1-0.3c0.5-0.1,0.6-0.3,0.6-0.6c0-0.8-0.5-1.4-1.7-1.4c-1.1,0-1.6,0.7-1.7,1.6l-1.4-0.3
		c0.2-1.5,1.5-2.5,3.2-2.5c2.3,0,3.2,1.3,3.2,2.8v3.9c0,0.7,0.1,1.1,0.1,1.3h-1.5c0-0.2-0.1-0.5-0.1-1c-0.3,0.5-1.1,1.3-2.5,1.3
		c-1.6,0-2.6-1.1-2.6-2.3C222.2,635.3,223.2,634.5,224.6,634.3z M227.2,635.4v-0.4l-2.4,0.4c-0.6,0.1-1.1,0.5-1.1,1.2
		c0,0.6,0.5,1.1,1.2,1.1C226.2,637.7,227.2,637.1,227.2,635.4z"/>
	<path fill="#646565" d="M231.7,634.8c0,1.8,1.1,2.7,2.4,2.7c1.4,0,2-1,2.1-1.6l1.3,0.6c-0.4,1.1-1.5,2.4-3.5,2.4
		c-2.2,0-3.9-1.8-3.9-4.1c0-2.4,1.7-4.1,3.9-4.1c2,0,3.1,1.3,3.4,2.4l-1.4,0.6c-0.2-0.8-0.8-1.6-2.1-1.6
		C232.8,632.2,231.7,633.1,231.7,634.8z"/>
	<path fill="#646565" d="M240.9,631h1.7v1.4h-1.7v4c0,0.7,0.3,1.1,1.1,1.1c0.2,0,0.5,0,0.6-0.1v1.3c-0.1,0-0.5,0.1-1,0.1
		c-1.3,0-2.1-0.8-2.1-2.2v-4.2H238V631h0.4c0.8,0,1.2-0.5,1.2-1.2v-1.2h1.4V631z"/>
	<path fill="#646565" d="M245,627c0.6,0,1.1,0.5,1.1,1.1c0,0.6-0.5,1.1-1.1,1.1c-0.6,0-1.1-0.5-1.1-1.1
		C243.9,627.5,244.4,627,245,627z M244.3,638.7V631h1.5v7.7H244.3z"/>
	<path fill="#646565" d="M255.2,634.8c0,2.4-1.6,4.1-3.9,4.1c-2.3,0-3.9-1.7-3.9-4.1c0-2.3,1.6-4.1,3.9-4.1
		C253.6,630.8,255.2,632.5,255.2,634.8z M253.7,634.8c0-1.8-1.1-2.7-2.4-2.7c-1.3,0-2.4,1-2.4,2.7c0,1.8,1.1,2.8,2.4,2.8
		C252.6,637.6,253.7,636.6,253.7,634.8z"/>
	<path fill="#646565" d="M258.3,638.7h-1.5V631h1.5v1.1c0.6-1,1.5-1.3,2.4-1.3c1.8,0,2.8,1.3,2.8,3v4.9h-1.5v-4.6
		c0-1.1-0.4-1.9-1.8-1.9c-1.2,0-1.8,0.9-1.8,2.1V638.7z"/>
	<path fill="#646565" d="M127.1,646.2c0.6,0,1.1,0.5,1.1,1.1c0,0.6-0.5,1.1-1.1,1.1c-0.6,0-1.1-0.5-1.1-1.1
		C126,646.7,126.5,646.2,127.1,646.2z M126.3,657.9v-7.7h1.5v7.7H126.3z"/>
	<path fill="#646565" d="M130.7,655.4c0.1,0.8,0.7,1.4,1.8,1.4c0.8,0,1.3-0.5,1.3-1c0-0.5-0.4-0.8-1-1l-1.3-0.3
		c-1.2-0.3-1.9-1.1-1.9-2.2c0-1.3,1.2-2.4,2.7-2.4c2.1,0,2.8,1.4,2.9,2.1l-1.3,0.5c-0.1-0.4-0.4-1.3-1.6-1.3c-0.8,0-1.3,0.5-1.3,1
		c0,0.5,0.3,0.8,0.9,0.9l1.2,0.3c1.4,0.3,2.1,1.2,2.1,2.3c0,1.1-0.9,2.4-2.8,2.4c-2.1,0-3-1.4-3.1-2.2L130.7,655.4z"/>
	<path fill="#646565" d="M142.5,653.5l2.1-0.3c0.5-0.1,0.6-0.3,0.6-0.6c0-0.8-0.5-1.4-1.7-1.4c-1.1,0-1.6,0.7-1.7,1.6l-1.4-0.3
		c0.2-1.5,1.5-2.5,3.2-2.5c2.3,0,3.2,1.3,3.2,2.8v3.9c0,0.7,0.1,1.1,0.1,1.3h-1.5c0-0.2-0.1-0.5-0.1-1c-0.3,0.5-1.1,1.3-2.5,1.3
		c-1.6,0-2.6-1.1-2.6-2.3C140.2,654.5,141.2,653.7,142.5,653.5z M145.2,654.6v-0.4l-2.4,0.4c-0.6,0.1-1.1,0.5-1.1,1.2
		c0,0.6,0.5,1.1,1.2,1.1C144.2,656.9,145.2,656.3,145.2,654.6z"/>
	<path fill="#646565" d="M148.7,660.9v-10.7h1.5v1.2c0.4-0.8,1.3-1.4,2.6-1.4c2.3,0,3.5,1.8,3.5,4c0,2.3-1.3,4.1-3.6,4.1
		c-1.2,0-2.1-0.6-2.5-1.2v4.1H148.7z M152.5,651.4c-1.4,0-2.3,1.2-2.3,2.7c0,1.6,0.9,2.7,2.3,2.7c1.4,0,2.3-1.1,2.3-2.7
		C154.7,652.5,153.9,651.4,152.5,651.4z"/>
	<path fill="#646565" d="M157.9,660.9v-10.7h1.5v1.2c0.4-0.8,1.3-1.4,2.6-1.4c2.3,0,3.5,1.8,3.5,4c0,2.3-1.3,4.1-3.6,4.1
		c-1.2,0-2.1-0.6-2.5-1.2v4.1H157.9z M161.6,651.4c-1.4,0-2.3,1.2-2.3,2.7c0,1.6,0.9,2.7,2.3,2.7c1.4,0,2.3-1.1,2.3-2.7
		C163.9,652.5,163,651.4,161.6,651.4z"/>
	<path fill="#646565" d="M171.3,651.7c-0.2,0-0.4,0-0.7,0c-1.3,0-2.1,0.7-2.1,2.4v3.9H167v-7.7h1.5v1.3c0.6-1.2,1.5-1.5,2.3-1.5
		c0.2,0,0.4,0,0.5,0V651.7z"/>
	<path fill="#646565" d="M179.8,654c0,2.4-1.6,4.1-3.9,4.1c-2.3,0-3.9-1.7-3.9-4.1c0-2.3,1.6-4.1,3.9-4.1
		C178.1,650,179.8,651.7,179.8,654z M178.2,654c0-1.8-1.1-2.7-2.4-2.7c-1.3,0-2.4,1-2.4,2.7c0,1.8,1.1,2.8,2.4,2.8
		C177.1,656.8,178.2,655.8,178.2,654z"/>
	<path fill="#646565" d="M184.6,657.9h-1.5l-3.1-7.7h1.7l2.2,5.9l2.2-5.9h1.6L184.6,657.9z"/>
	<path fill="#646565" d="M195.3,655.7c-0.4,1.4-1.7,2.4-3.5,2.4c-2.1,0-3.9-1.5-3.9-4.1c0-2.4,1.7-4.1,3.7-4.1c2.4,0,3.7,1.6,3.7,4
		c0,0.2,0,0.4,0,0.5h-5.8c0,1.4,1,2.3,2.3,2.3c1.2,0,1.9-0.7,2.2-1.6L195.3,655.7z M193.8,653.3c0-1.1-0.8-2-2.1-2c-1.3,0-2,1-2.1,2
		H193.8z"/>
	<path fill="#646565" d="M202.3,656.7c-0.4,0.7-1.2,1.4-2.4,1.4c-2.3,0-3.6-1.8-3.6-4.1c0-2.2,1.5-4,3.6-4c1.4,0,2.1,0.7,2.4,1.3v-5
		h1.5v10.2c0,0.7,0.1,1.3,0.1,1.4h-1.5c0-0.2-0.1-0.6-0.1-1V656.7z M200.1,656.8c1.4,0,2.2-1.2,2.2-2.8c0-1.6-0.8-2.7-2.2-2.7
		c-1.4,0-2.3,1.1-2.3,2.7C197.8,655.6,198.6,656.8,200.1,656.8z"/>
	<path fill="#646565" d="M207,655.8c0.6,0,1.1,0.5,1.1,1.1s-0.5,1.1-1.1,1.1c-0.6,0-1.1-0.5-1.1-1.1S206.3,655.8,207,655.8z"/>
</g>
<g>
	<path fill="#F68B3C" d="M23.7,51.8c0-7,5.3-11.8,11.6-11.8c6.7,0,9.7,4.3,10.5,7.6L41,49.1c-0.3-1.6-1.8-4.2-5.7-4.2
		c-3,0-6.4,2.2-6.4,6.9c0,4.2,3.1,6.7,6.5,6.7c3.9,0,5.4-2.6,5.9-4.2l4.8,1.4c-0.7,3.1-3.7,7.9-10.7,7.9
		C28.9,63.5,23.7,58.8,23.7,51.8z"/>
	<path fill="#F68B3C" d="M53,63h-4.8V40.1H53v8.2c1-1,2.6-1.4,4-1.4c4.1,0,6,2.8,6,6.3V63h-4.8v-9.1c0-1.6-0.8-2.7-2.6-2.7
		c-1.5,0-2.5,1.1-2.6,2.5V63z"/>
	<path fill="#F68B3C" d="M68.7,39.6c1.6,0,2.9,1.3,2.9,2.8s-1.3,2.8-2.9,2.8c-1.5,0-2.8-1.3-2.8-2.8S67.2,39.6,68.7,39.6z M66.4,63
		V47.2h4.8V63H66.4z"/>
	<path fill="#F68B3C" d="M74.8,69V47.2h4.7v1.6c0.7-1,2.4-2,4.6-2c4.6,0,7.3,3.5,7.3,8.2c0,4.8-3.1,8.3-7.5,8.3
		c-2,0-3.5-0.7-4.3-1.6V69H74.8z M83.1,51.2c-1.9,0-3.5,1.3-3.5,3.9c0,2.6,1.7,3.9,3.5,3.9c1.9,0,3.6-1.3,3.6-3.9
		C86.6,52.5,85,51.2,83.1,51.2z"/>
	<path fill="#F68B3C" d="M106.7,47.2h3.1v4.2h-3.1v5.9c0,1.3,0.7,1.6,1.7,1.6c0.5,0,1-0.1,1.3-0.2v4c-0.2,0.1-1,0.4-2.5,0.4
		c-3.3,0-5.3-1.9-5.3-5.1v-6.7h-2.8v-4.2h0.8c1.6,0,2.4-1.1,2.4-2.6v-2h4.3V47.2z"/>
	<path fill="#F68B3C" d="M122.4,52c-0.5-0.1-1-0.2-1.5-0.2c-1.9,0-3.7,1.1-3.7,4.3V63h-4.8V47.2h4.7v2.1c0.8-1.8,2.8-2.3,4.1-2.3
		c0.5,0,1,0.1,1.3,0.2V52z"/>
	<path fill="#F68B3C" d="M128.5,53.9l3.7-0.6c0.9-0.1,1.1-0.5,1.1-1.1c0-0.9-0.8-1.7-2.3-1.7c-1.7,0-2.6,1.1-2.7,2.3l-4.2-0.9
		c0.2-2.2,2.3-5.2,6.9-5.2c5.1,0,7,2.9,7,6.1v7.7c0,1.2,0.2,2.3,0.2,2.4h-4.3c0-0.1-0.2-0.7-0.2-1.8c-0.8,1.3-2.3,2.2-4.4,2.2
		c-3.5,0-5.4-2.3-5.4-4.8C123.9,55.9,125.9,54.3,128.5,53.9z M133.4,56.8v-0.7l-3,0.5c-1,0.2-1.8,0.6-1.8,1.7c0,0.8,0.5,1.6,1.9,1.6
		C131.9,59.9,133.4,59.3,133.4,56.8z"/>
	<path fill="#F68B3C" d="M146.3,63h-4.8V47.2h4.7v1.8c0.9-1.5,2.8-2.2,4.4-2.2c4,0,5.7,2.8,5.7,6.3V63h-4.8v-9.1
		c0-1.6-0.8-2.7-2.6-2.7c-1.6,0-2.6,1.2-2.6,2.8V63z"/>
	<path fill="#F68B3C" d="M162.5,57.8c0.1,1.1,0.8,2.1,2.5,2.1c1.2,0,1.8-0.7,1.8-1.4c0-0.6-0.4-1-1.6-1.3l-1.8-0.4
		c-3.4-0.7-4.7-2.6-4.7-4.8c0-2.9,2.5-5.2,6.1-5.2c4.6,0,6.1,2.9,6.3,4.7l-4,0.7c-0.1-1-0.8-1.9-2.2-1.9c-0.9,0-1.7,0.5-1.7,1.4
		c0,0.7,0.5,1,1.2,1.2l2.1,0.4c3.3,0.7,4.8,2.6,4.8,4.9c0,2.7-2.1,5.3-6.3,5.3c-4.9,0-6.5-3.2-6.7-4.9L162.5,57.8z"/>
	<path fill="#F68B3C" d="M177.5,53.9l3.7-0.6c0.9-0.1,1.1-0.5,1.1-1.1c0-0.9-0.8-1.7-2.3-1.7c-1.7,0-2.6,1.1-2.7,2.3l-4.2-0.9
		c0.2-2.2,2.3-5.2,6.9-5.2c5.1,0,7,2.9,7,6.1v7.7c0,1.2,0.2,2.3,0.2,2.4h-4.3c0-0.1-0.2-0.7-0.2-1.8c-0.8,1.3-2.3,2.2-4.4,2.2
		c-3.5,0-5.4-2.3-5.4-4.8C172.8,55.9,174.9,54.3,177.5,53.9z M182.3,56.8v-0.7l-3,0.5c-1,0.2-1.8,0.6-1.8,1.7c0,0.8,0.5,1.6,1.9,1.6
		C180.9,59.9,182.3,59.3,182.3,56.8z"/>
	<path fill="#F68B3C" d="M194,55.1c0,2.5,1.7,3.9,3.7,3.9c1.9,0,2.9-1.2,3.3-2.3l4.2,1.3c-0.7,2.8-3.3,5.5-7.5,5.5
		c-4.7,0-8.5-3.5-8.5-8.3c0-4.9,3.7-8.4,8.3-8.4c4.3,0,6.9,2.7,7.6,5.5l-4.3,1.3c-0.3-1.2-1.3-2.3-3.2-2.3
		C195.6,51.2,194,52.6,194,55.1z"/>
	<path fill="#F68B3C" d="M213.3,47.2h3.1v4.2h-3.1v5.9c0,1.3,0.7,1.6,1.7,1.6c0.5,0,1-0.1,1.3-0.2v4c-0.2,0.1-1,0.4-2.5,0.4
		c-3.3,0-5.3-1.9-5.3-5.1v-6.7h-2.8v-4.2h0.8c1.6,0,2.4-1.1,2.4-2.6v-2h4.3V47.2z"/>
	<path fill="#F68B3C" d="M221.5,39.6c1.6,0,2.9,1.3,2.9,2.8s-1.3,2.8-2.9,2.8c-1.5,0-2.8-1.3-2.8-2.8S220,39.6,221.5,39.6z
		 M219.1,63V47.2h4.8V63H219.1z"/>
	<path fill="#F68B3C" d="M243.1,55.1c0,4.9-3.6,8.4-8.4,8.4c-4.7,0-8.4-3.5-8.4-8.4s3.7-8.3,8.4-8.3
		C239.4,46.8,243.1,50.2,243.1,55.1z M238.3,55.1c0-2.7-1.7-3.9-3.5-3.9c-1.8,0-3.5,1.2-3.5,3.9c0,2.6,1.7,3.9,3.5,3.9
		C236.6,59,238.3,57.8,238.3,55.1z"/>
	<path fill="#F68B3C" d="M250.4,63h-4.8V47.2h4.7v1.8c0.9-1.5,2.8-2.2,4.4-2.2c4,0,5.7,2.8,5.7,6.3V63h-4.8v-9.1
		c0-1.6-0.8-2.7-2.6-2.7c-1.6,0-2.6,1.2-2.6,2.8V63z"/>
	<path fill="#F68B3C" d="M266.6,57.8c0.1,1.1,0.8,2.1,2.5,2.1c1.2,0,1.8-0.7,1.8-1.4c0-0.6-0.4-1-1.6-1.3l-1.8-0.4
		c-3.4-0.7-4.7-2.6-4.7-4.8c0-2.9,2.5-5.2,6.1-5.2c4.6,0,6.1,2.9,6.3,4.7l-4,0.7c-0.1-1-0.8-1.9-2.2-1.9c-0.9,0-1.7,0.5-1.7,1.4
		c0,0.7,0.5,1,1.2,1.2l2.1,0.4c3.3,0.7,4.8,2.6,4.8,4.9c0,2.7-2.1,5.3-6.3,5.3c-4.9,0-6.5-3.2-6.7-4.9L266.6,57.8z"/>
	<path fill="#19325C" d="M25.4,95V72.5H39v2.9H28.5v6.9h9.6v2.9h-9.6v6.9H39V95H25.4z"/>
	<path fill="#19325C" d="M46,86.3l4.1-0.6c0.9-0.1,1.2-0.6,1.2-1.1c0-1.5-1-2.7-3.3-2.7c-2.1,0-3.3,1.3-3.5,3.1l-2.9-0.7
		c0.3-2.9,2.9-4.9,6.2-4.9c4.6,0,6.3,2.6,6.3,5.6v7.6c0,1.3,0.1,2.1,0.2,2.5h-2.9c-0.1-0.4-0.2-1-0.2-2.1c-0.7,1.1-2.2,2.5-4.9,2.5
		c-3.1,0-5.1-2.2-5.1-4.6C41.4,88.2,43.4,86.7,46,86.3z M51.3,88.5v-0.7l-4.7,0.7c-1.3,0.2-2.2,0.9-2.2,2.3c0,1.1,1,2.2,2.5,2.2
		C49.4,93,51.3,91.8,51.3,88.5z"/>
	<path fill="#19325C" d="M59.6,90.1c0.2,1.6,1.4,2.9,3.5,2.9c1.7,0,2.6-1,2.6-2c0-1-0.7-1.7-2-2l-2.6-0.6c-2.4-0.5-3.8-2.1-3.8-4.3
		c0-2.6,2.4-4.8,5.4-4.8c4.2,0,5.5,2.7,5.8,4.1l-2.6,1c-0.1-0.8-0.8-2.5-3.2-2.5c-1.5,0-2.5,1-2.5,2c0,0.9,0.6,1.6,1.7,1.8l2.5,0.5
		c2.8,0.6,4.2,2.3,4.2,4.5c0,2.2-1.8,4.7-5.6,4.7c-4.2,0-6-2.7-6.2-4.4L59.6,90.1z"/>
	<path fill="#19325C" d="M72.3,101.4l3.8-8l-6.6-13.6H73l4.8,10.5l4.6-10.5h3.2l-9.9,21.6H72.3z"/>
	<path fill="#19325C" d="M98.7,86.3l4.1-0.6c0.9-0.1,1.2-0.6,1.2-1.1c0-1.5-1-2.7-3.3-2.7c-2.1,0-3.3,1.3-3.5,3.1l-2.9-0.7
		c0.3-2.9,2.9-4.9,6.2-4.9c4.6,0,6.3,2.6,6.3,5.6v7.6c0,1.3,0.1,2.1,0.2,2.5h-2.9c-0.1-0.4-0.2-1-0.2-2.1c-0.7,1.1-2.2,2.5-4.9,2.5
		c-3.1,0-5.1-2.2-5.1-4.6C94.1,88.2,96.1,86.7,98.7,86.3z M104,88.5v-0.7l-4.7,0.7c-1.3,0.2-2.2,0.9-2.2,2.3c0,1.1,1,2.2,2.5,2.2
		C102,93,104,91.8,104,88.5z"/>
	<path fill="#19325C" d="M112.2,90.1c0.2,1.6,1.4,2.9,3.5,2.9c1.7,0,2.6-1,2.6-2c0-1-0.7-1.7-2-2l-2.6-0.6c-2.4-0.5-3.8-2.1-3.8-4.3
		c0-2.6,2.4-4.8,5.4-4.8c4.2,0,5.5,2.7,5.8,4.1l-2.6,1c-0.1-0.8-0.8-2.5-3.2-2.5c-1.5,0-2.5,1-2.5,2c0,0.9,0.6,1.6,1.7,1.8l2.5,0.5
		c2.8,0.6,4.2,2.3,4.2,4.5c0,2.2-1.8,4.7-5.6,4.7c-4.2,0-6-2.7-6.2-4.4L112.2,90.1z"/>
	<path fill="#19325C" d="M135.2,95V80.5h-5v-2.2c2.9-0.1,4.8-1.6,5.3-3.9h2.7V95H135.2z"/>
	<path fill="#19325C" d="M141.4,87.2v-2.6h8.6v2.6H141.4z"/>
	<path fill="#19325C" d="M152.1,81.5c0-0.3,0-0.6,0-0.8c0-3.5,2.6-6.7,7.1-6.7c4.4,0,6.9,2.9,6.9,6.3c0,2.7-1.5,4.8-3.9,6.3
		l-4.1,2.6c-1.2,0.8-2.2,1.6-2.5,2.9h10.5V95h-14.4c0.1-3.4,1.4-5.9,4.9-8.2l3.4-2.2c1.9-1.2,2.8-2.7,2.8-4.3c0-1.9-1.3-3.6-3.9-3.6
		c-2.7,0-4,1.9-4,4.2c0,0.3,0,0.6,0.1,0.9L152.1,81.5z"/>
	<path fill="#19325C" d="M168.3,87.2v-2.6h8.6v2.6H168.3z"/>
	<path fill="#19325C" d="M182.6,82.9l6.1-5.6h-9.8v-2.9h13.9v2.8l-5.9,5.4c3,0,6.3,2,6.3,6.2c0,3.5-2.7,6.6-7.4,6.6
		c-4.8,0-7.4-3.1-7.6-6.5l3-0.7c0.1,2.7,2.1,4.4,4.6,4.4c2.8,0,4.3-1.7,4.3-3.8c0-2.7-2.2-3.8-4.2-3.8c-0.6,0-1.3,0.1-1.8,0.3
		L182.6,82.9z"/>
</g>
<rect x="59.8" y="190.2" fill="#19325C" width="8.1" height="4"/>
<rect x="71.9" y="190.2" fill="#19325C" width="8.1" height="4"/>
<rect x="84" y="190.2" fill="#19325C" width="8.1" height="4"/>
<rect x="59.8" y="198.3" fill="#19325C" width="8.1" height="4"/>
<rect x="71.9" y="198.3" fill="#19325C" width="8.1" height="4"/>
<rect x="84" y="198.3" fill="#19325C" width="8.1" height="4"/>
<rect x="59.8" y="206.4" fill="#19325C" width="8.1" height="4"/>
<rect x="71.9" y="206.4" fill="#19325C" width="8.1" height="4"/>
<rect x="84" y="206.4" fill="#19325C" width="8.1" height="4"/>
<polygon fill="#19325C" points="51.7,218.5 51.8,218.5 55.8,222.5 55.8,222.5 92.1,222.5 92.1,218.5 55.8,218.5 55.8,218.5 
	55.8,218.5 55.8,162 96.2,162 96.2,162 96.2,222.5 100.2,222.5 100.2,162 100.2,162 96.2,157.9 55.8,157.9 51.7,162 51.7,162 
	51.7,162 "/>
<polygon fill="#19325C" points="92.1,170 92.1,166 63.8,166 63.8,166 63.8,166 63.8,166 63.8,166 59.8,170 59.8,170 59.8,182.2 
	63.8,182.2 63.8,170 "/>
<polygon fill="#19325C" points="88.1,186.2 88.1,186.2 92.1,182.2 92.1,182.2 92.1,182.2 92.1,174.1 88.1,174.1 88.1,182.2 
	63.8,182.2 63.8,182.2 59.8,182.2 63.8,186.2 63.8,186.2 63.8,186.2 63.8,186.2 63.8,186.2 88.1,186.2 "/>
<rect x="63.9" y="234.7" fill="#19325C" width="4" height="48.5"/>
<rect x="71.9" y="250.8" fill="#19325C" width="4" height="32.3"/>
<polygon fill="#19325C" points="76,246.8 76,246.8 76,246.8 80,246.8 84.1,242.7 84.1,242.7 84.1,234.6 80,234.6 80,242.7 76,242.7 
	76,234.6 72,234.6 72,242.7 76,242.7 76,242.7 72,242.7 76,246.8 76,246.8 "/>
<polygon fill="#19325C" points="96.2,291.2 96.2,230.6 96.2,230.6 92.2,226.6 92.2,226.6 92.2,226.6 59.8,226.6 59.8,226.6 
	55.8,230.6 55.8,230.6 55.8,287.1 55.8,287.1 59.9,291.2 59.9,291.2 88,291.2 88,287.1 59.9,287.1 59.9,287.1 59.8,287.1 
	59.8,230.6 59.8,230.6 59.8,230.6 92.2,230.6 92.2,230.6 92.2,230.6 92.2,291.2 "/>
<polygon fill="#19325C" points="23.5,258.9 23.5,258.9 23.5,258.9 30.7,258.9 30.7,258.9 30.7,279.1 34.7,279.1 34.7,258.9 
	34.7,258.9 34.7,258.9 30.7,254.8 27.5,254.8 36.8,245.6 37.8,244.5 36.8,245.6 46,254.8 46,254.8 42.8,254.8 38.7,258.9 
	38.7,258.9 38.7,258.9 38.7,279.1 42.8,279.1 42.8,258.9 50,258.9 50,258.9 50,258.9 51.7,254.8 39.6,242.7 39.6,242.7 39.6,242.7 
	33.9,242.7 33.9,242.7 21.8,254.8 23.5,258.9 "/>
<polygon fill="#19325C" points="31.3,398.2 31.3,398.2 31.3,398.2 35.4,399.9 47.5,387.8 47.5,387.8 47.5,382.1 47.5,382.1 
	35.4,369.9 31.3,371.7 31.3,371.7 31.3,378.8 11.1,378.8 11.1,382.9 31.3,382.9 35.4,378.8 35.4,375.7 44.6,384.9 35.4,394.2 
	35.4,390.9 31.3,386.9 11.1,386.9 11.1,390.9 31.3,390.9 "/>
<polygon fill="#19325C" points="87.9,398.3 87.9,398.3 92,394.2 92,394.2 92,386.2 87.9,386.2 87.9,394.2 63.7,394.2 63.7,394.2 
	63.7,394.2 63.7,382.1 92,382.1 92,378.1 63.7,378.1 63.7,378.1 63.7,378.1 63.7,378.1 63.7,378.1 59.6,382.1 59.6,382.1 
	59.6,382.1 59.6,394.2 59.6,394.2 63.7,398.3 63.7,398.3 87.9,398.3 "/>
<rect x="59.6" y="402.3" fill="#19325C" width="8.1" height="4"/>
<rect x="71.8" y="402.3" fill="#19325C" width="8.1" height="4"/>
<rect x="83.9" y="402.3" fill="#19325C" width="8.1" height="4"/>
<rect x="59.6" y="410.4" fill="#19325C" width="8.1" height="4"/>
<rect x="71.8" y="410.4" fill="#19325C" width="8.1" height="4"/>
<rect x="83.9" y="410.4" fill="#19325C" width="8.1" height="4"/>
<rect x="59.6" y="418.5" fill="#19325C" width="8.1" height="4"/>
<rect x="71.8" y="418.5" fill="#19325C" width="8.1" height="4"/>
<rect x="83.9" y="418.5" fill="#19325C" width="8.1" height="4"/>
<polygon fill="#19325C" points="55.6,434.6 63.7,434.6 63.7,455.2 67.8,455.2 67.8,434.6 71.8,434.6 71.8,455.2 75.8,455.2 
	75.8,434.6 92,434.6 92,430.6 55.6,430.6 55.6,430.6 55.6,430.6 55.6,374 96,374 96,434.6 100.1,434.6 100.1,374 100.1,374 96,370 
	55.6,370 51.6,374 51.6,374 51.6,430.6 51.6,430.6 55.6,434.6 "/>
<polygon fill="#19325C" points="55.6,434.7 55.6,459.2 55.7,459.2 59.7,463.3 59.7,463.3 59.7,463.3 87.9,463.3 87.9,459.2 
	59.7,459.2 59.7,459.2 59.7,459.2 59.7,434.7 "/>
<rect x="92" y="434.7" fill="#19325C" width="4" height="28.6"/>
<polygon fill="#19325C" points="88.9,612 88.9,612 93,608 93,608 93,599.9 88.9,599.9 88.9,608 68,608 64.7,608 64.7,595.8 
	64.7,595.8 64.7,595.8 93,595.8 93,591.8 64.7,591.8 64.7,591.8 60.6,595.8 60.6,595.8 60.6,608 60.6,608 64.7,612 64.7,612 
	64.7,612 64.7,612 64.7,612 88.9,612 "/>
<rect x="60.6" y="616" fill="#19325C" width="8.1" height="4"/>
<rect x="72.8" y="616" fill="#19325C" width="8.1" height="4"/>
<rect x="84.9" y="616" fill="#19325C" width="8.1" height="4"/>
<rect x="60.6" y="624.1" fill="#19325C" width="8.1" height="4"/>
<rect x="72.8" y="624.1" fill="#19325C" width="8.1" height="4"/>
<rect x="84.9" y="624.1" fill="#19325C" width="8.1" height="4"/>
<rect x="60.6" y="632.2" fill="#19325C" width="8.1" height="4"/>
<rect x="72.8" y="632.2" fill="#19325C" width="8.1" height="4"/>
<rect x="84.9" y="632.2" fill="#19325C" width="8.1" height="4"/>
<rect x="97" y="587.8" fill="#19325C" width="4" height="60.6"/>
<rect x="93" y="648.4" fill="#19325C" width="4" height="28.6"/>
<polygon fill="#19325C" points="97,583.7 97,587.8 101.1,587.8 "/>
<polygon fill="#19325C" points="97,583.7 56.6,583.7 56.6,583.7 52.6,587.8 52.6,587.8 52.6,644.3 52.6,644.3 56.6,648.4 56.6,673 
	56.8,673 60.7,677 60.7,677 88.9,677 88.9,673 60.7,673 60.7,673 60.7,673 60.7,648.4 64.7,648.4 64.7,668.9 68.8,668.9 68.8,648.4 
	72.8,648.4 72.8,668.9 76.8,668.9 76.8,648.4 93,648.4 93,644.3 56.6,644.3 56.6,644.3 56.6,644.3 56.6,587.8 97,587.8 "/>
<polygon fill="#19325C" points="35.3,660.4 35.3,640.2 31.3,640.2 31.3,660.4 24,660.4 24,660.4 24,660.4 22.3,664.4 34.4,676.5 
	34.4,676.5 40.1,676.5 40.1,676.5 52.3,664.4 50.6,660.4 50.6,660.4 43.4,660.4 43.4,640.2 39.3,640.2 39.3,660.4 43.4,664.4 
	46.5,664.4 37.3,673.7 28,664.4 31.3,664.4 "/>
<path fill="#DAD9D9" d="M299.5,2H299v733.9c0,2.2-1.8,4-4,4H5c-2.2,0-4-1.8-4-4V2H0.5H0v733.9c0,2.8,2.2,5,5,5h290c2.8,0,5-2.2,5-5
	V2H299.5z"/>
<rect x="0.5" y="0" fill="#F68B3C" width="298.5" height="3"/>
</svg>
