<?xml version="1.0" encoding="utf-8"?>
<!-- Generator: Adobe Illustrator 16.0.0, SVG Export Plug-In . SVG Version: 6.00 Build 0)  -->
<!DOCTYPE svg PUBLIC "-//W3C//DTD SVG 1.1//EN" "http://www.w3.org/Graphics/SVG/1.1/DTD/svg11.dtd">
<svg version="1.1" id="Layer_1" xmlns="http://www.w3.org/2000/svg" xmlns:xlink="http://www.w3.org/1999/xlink" x="0px" y="0px"
	 width="51px" height="50px" viewBox="0 0 51 50" enable-background="new 0 0 51 50" xml:space="preserve">
<g>
	<path fill="#F68C3D" d="M10.221,16.667L10.221,16.667c-4.602,0-8.332,3.731-8.332,8.333l0,0h2.773l0,0
		c0-3.071,2.49-5.561,5.561-5.561v-2.773L10.221,16.667L10.221,16.667z"/>
	<path fill="#F68C3D" d="M15.778,16.667v2.773c3.071,0,5.561,2.49,5.561,5.561h-0.005v16.667h0.005c0,3.071-2.49,5.561-5.561,5.561
		l0,0h-5.556c-3.071,0-5.561-2.489-5.561-5.561h0.005V25H1.889v16.667C1.889,46.27,5.62,50,10.222,50h5.556
		c4.602,0,8.333-3.73,8.333-8.333V25C24.111,20.398,20.38,16.667,15.778,16.667z"/>
	<polygon fill="#3B4C6D" points="13,19.444 13,28.791 15.778,28.791 15.778,19.444 15.778,19.439 15.778,16.667 	"/>
	<path fill="#3B4C6D" d="M37.998,16.668h-2.773c0,7.67,6.217,13.887,13.887,13.889v-2.774
		C42.975,27.781,37.998,22.806,37.998,16.668z"/>
	<path fill="#3B4C6D" d="M35.223,16.667h2.778v-2.779h-0.003c0-7.669-6.216-13.886-13.885-13.888l0,0
		c-7.67,0.001-13.887,6.218-13.888,13.888H10.22v2.779l0,0h0.001v2.773v0.005L13,16.667l0,0v-2.778
		c0.001-6.137,4.975-11.113,11.111-11.115l0,0c6.138,0.001,11.114,4.976,11.114,11.113h-0.002V16.667z"/>
</g>
</svg>
